<svg width="35" height="35" viewBox="0 0 35 35" fill="none" xmlns="http://www.w3.org/2000/svg">
<path d="M30.5102 9.3543L28.3227 4.9793C28.2317 4.79758 28.092 4.64479 27.9191 4.53805C27.7462 4.43132 27.5469 4.37485 27.3438 4.375H7.65625C7.45305 4.37485 7.25383 4.43132 7.08093 4.53805C6.90803 4.64479 6.76827 4.79758 6.67734 4.9793L4.48984 9.3543C4.41445 9.50645 4.37515 9.67394 4.375 9.84375V28.4375C4.375 29.0177 4.60547 29.5741 5.0157 29.9843C5.42594 30.3945 5.98234 30.625 6.5625 30.625H28.4375C29.0177 30.625 29.5741 30.3945 29.9843 29.9843C30.3945 29.5741 30.625 29.0177 30.625 28.4375V9.84375C30.6248 9.67394 30.5855 9.50645 30.5102 9.3543ZM22.6488 19.3676C22.5472 19.4693 22.4266 19.5499 22.2938 19.605C22.1611 19.66 22.0187 19.6884 21.875 19.6884C21.7313 19.6884 21.5889 19.66 21.4562 19.605C21.3234 19.5499 21.2028 19.4693 21.1012 19.3676L18.5938 16.8588V25.1562C18.5938 25.4463 18.4785 25.7245 18.2734 25.9296C18.0683 26.1348 17.7901 26.25 17.5 26.25C17.2099 26.25 16.9317 26.1348 16.7266 25.9296C16.5215 25.7245 16.4062 25.4463 16.4062 25.1562V16.8588L13.8988 19.3676C13.7972 19.4692 13.6766 19.5498 13.5438 19.6048C13.411 19.6598 13.2687 19.6881 13.125 19.6881C12.9813 19.6881 12.839 19.6598 12.7062 19.6048C12.5734 19.5498 12.4528 19.4692 12.3512 19.3676C12.2496 19.266 12.1689 19.1453 12.1139 19.0125C12.0589 18.8798 12.0306 18.7375 12.0306 18.5938C12.0306 18.45 12.0589 18.3077 12.1139 18.175C12.1689 18.0422 12.2496 17.9215 12.3512 17.8199L16.7262 13.4449C16.8278 13.3432 16.9484 13.2626 17.0812 13.2075C17.2139 13.1525 17.3563 13.1241 17.5 13.1241C17.6437 13.1241 17.7861 13.1525 17.9188 13.2075C18.0516 13.2626 18.1722 13.3432 18.2738 13.4449L22.6488 17.8199C22.7505 17.9215 22.8312 18.0421 22.8862 18.1749C22.9413 18.3077 22.9696 18.45 22.9696 18.5938C22.9696 18.7375 22.9413 18.8798 22.8862 19.0126C22.8312 19.1454 22.7505 19.266 22.6488 19.3676ZM7.23789 8.75L8.33164 6.5625H26.6684L27.7621 8.75H7.23789Z" fill="#B88416"/>
</svg>
