<svg width="15" height="15" viewBox="0 0 15 15" fill="none" xmlns="http://www.w3.org/2000/svg">
<path d="M12.6848 8.87759L7.99731 4.19009C7.93199 4.12454 7.85437 4.07253 7.7689 4.03704C7.68344 4.00155 7.59181 3.98328 7.49927 3.98328C7.40672 3.98328 7.31509 4.00155 7.22963 4.03704C7.14416 4.07253 7.06654 4.12454 7.00122 4.19009L2.31372 8.87759C2.18163 9.00968 2.10742 9.18883 2.10742 9.37564C2.10742 9.56244 2.18163 9.74159 2.31372 9.87368C2.44581 10.0058 2.62496 10.08 2.81177 10.08C2.99857 10.08 3.17772 10.0058 3.30981 9.87368L7.49985 5.68364L11.6899 9.87427C11.822 10.0064 12.0011 10.0806 12.1879 10.0806C12.3747 10.0806 12.5539 10.0064 12.686 9.87427C12.8181 9.74218 12.8923 9.56303 12.8923 9.37622C12.8923 9.18942 12.8181 9.01026 12.686 8.87817L12.6848 8.87759Z" fill="#656565"/>
</svg>
