<svg width="47" height="45" viewBox="0 0 47 45" fill="none" xmlns="http://www.w3.org/2000/svg">
<ellipse cx="23.7952" cy="22.5" rx="23.1009" ry="22.5" fill="#D5F0F3"/>
<path d="M35.5507 22.1084C35.5497 21.0703 35.2547 20.0538 34.6999 19.1764C34.1452 18.299 33.3533 17.5966 32.4159 17.1505V17.0144C32.415 16.0046 32.0891 15.0219 31.4863 14.2118C30.8836 13.4016 30.036 12.807 29.0691 12.516C28.1022 12.2249 27.0673 12.2529 26.1175 12.5956C25.1677 12.9384 24.3534 13.5779 23.7953 14.4194C23.2371 13.5779 22.4229 12.9384 21.473 12.5956C20.5232 12.2529 19.4883 12.2249 18.5214 12.516C17.5545 12.807 16.7069 13.4016 16.1042 14.2118C15.5014 15.0219 15.1755 16.0046 15.1746 17.0144V17.1505C14.2364 17.5954 13.4438 18.2973 12.8887 19.1748C12.3337 20.0522 12.0391 21.0692 12.0391 22.1074C12.0391 23.1457 12.3337 24.1627 12.8887 25.0401C13.4438 25.9176 14.2364 26.6195 15.1746 27.0643V27.2024C15.1755 28.2122 15.5014 29.1949 16.1042 30.005C16.7069 30.8152 17.5545 31.4098 18.5214 31.7008C19.4883 31.9919 20.5232 31.964 21.473 31.6212C22.4229 31.2784 23.2371 30.6389 23.7953 29.7975C24.3534 30.6389 25.1677 31.2784 26.1175 31.6212C27.0673 31.964 28.1022 31.9919 29.0691 31.7008C30.036 31.4098 30.8836 30.8152 31.4863 30.005C32.0891 29.1949 32.415 28.2122 32.4159 27.2024V27.0643C33.3531 26.6186 34.1449 25.9166 34.6997 25.0395C35.2545 24.1624 35.5495 23.1462 35.5507 22.1084ZM19.8768 30.3372C19.1038 30.3371 18.3581 30.0514 17.783 29.535C17.2078 29.0186 16.8437 28.3079 16.7606 27.5394C17.014 27.5756 17.2697 27.5939 17.5257 27.5943H18.3094C18.5172 27.5943 18.7166 27.5117 18.8635 27.3648C19.0105 27.2178 19.0931 27.0184 19.0931 26.8106C19.0931 26.6027 19.0105 26.4034 18.8635 26.2564C18.7166 26.1095 18.5172 26.0269 18.3094 26.0269H17.5257C16.6005 26.028 15.7047 25.7017 14.9971 25.1057C14.2894 24.5098 13.8154 23.6826 13.659 22.7707C13.5026 21.8588 13.6739 20.921 14.1426 20.1234C14.6113 19.3257 15.3472 18.7195 16.2198 18.4123C16.3725 18.3582 16.5047 18.2582 16.5982 18.1259C16.6917 17.9936 16.742 17.8357 16.742 17.6737V17.0144C16.742 16.183 17.0723 15.3856 17.6601 14.7977C18.248 14.2099 19.0454 13.8796 19.8768 13.8796C20.7082 13.8796 21.5055 14.2099 22.0934 14.7977C22.6813 15.3856 23.0116 16.183 23.0116 17.0144V23.7013C22.151 22.9273 21.0342 22.4994 19.8768 22.5003C19.6689 22.5003 19.4696 22.5828 19.3226 22.7298C19.1756 22.8768 19.0931 23.0761 19.0931 23.284C19.0931 23.4918 19.1756 23.6911 19.3226 23.8381C19.4696 23.9851 19.6689 24.0677 19.8768 24.0677C20.7082 24.0677 21.5055 24.3979 22.0934 24.9858C22.6813 25.5737 23.0116 26.371 23.0116 27.2024C23.0116 28.0338 22.6813 28.8312 22.0934 29.4191C21.5055 30.007 20.7082 30.3372 19.8768 30.3372ZM30.0648 26.0269H29.2811C29.0733 26.0269 28.874 26.1095 28.727 26.2564C28.58 26.4034 28.4974 26.6027 28.4974 26.8106C28.4974 27.0184 28.58 27.2178 28.727 27.3648C28.874 27.5117 29.0733 27.5943 29.2811 27.5943H30.0648C30.3208 27.5939 30.5765 27.5756 30.8299 27.5394C30.7648 28.1416 30.5267 28.712 30.1443 29.1816C29.7619 29.6513 29.2516 30.0002 28.6752 30.186C28.0988 30.3718 27.4808 30.3867 26.8961 30.2289C26.3114 30.071 25.785 29.7471 25.3804 29.2964C24.9759 28.8457 24.7105 28.2874 24.6165 27.6891C24.5225 27.0908 24.6038 26.478 24.8506 25.925C25.0974 25.3719 25.4992 24.9021 26.0073 24.5725C26.5154 24.2429 27.1081 24.0676 27.7137 24.0677C27.9216 24.0677 28.1209 23.9851 28.2679 23.8381C28.4149 23.6911 28.4974 23.4918 28.4974 23.284C28.4974 23.0761 28.4149 22.8768 28.2679 22.7298C28.1209 22.5828 27.9216 22.5003 27.7137 22.5003C26.5563 22.4994 25.4395 22.9273 24.579 23.7013V17.0144C24.579 16.183 24.9092 15.3856 25.4971 14.7977C26.085 14.2099 26.8823 13.8796 27.7137 13.8796C28.5451 13.8796 29.3425 14.2099 29.9304 14.7977C30.5183 15.3856 30.8485 16.183 30.8485 17.0144V17.6737C30.8486 17.8357 30.8988 17.9936 30.9923 18.1259C31.0858 18.2582 31.218 18.3582 31.3707 18.4123C32.2434 18.7195 32.9792 19.3257 33.4479 20.1234C33.9166 20.921 34.0879 21.8588 33.9315 22.7707C33.7751 23.6826 33.3011 24.5098 32.5935 25.1057C31.8858 25.7017 30.99 26.028 30.0648 26.0269ZM31.6322 20.9329C31.6322 21.1407 31.5497 21.3401 31.4027 21.487C31.2557 21.634 31.0564 21.7166 30.8485 21.7166H30.4567C29.5214 21.7166 28.6243 21.345 27.963 20.6836C27.3016 20.0223 26.93 19.1252 26.93 18.1899V17.7981C26.93 17.5902 27.0126 17.3909 27.1596 17.2439C27.3066 17.0969 27.5059 17.0144 27.7137 17.0144C27.9216 17.0144 28.1209 17.0969 28.2679 17.2439C28.4149 17.3909 28.4974 17.5902 28.4974 17.7981V18.1899C28.4974 18.7096 28.7039 19.2079 29.0713 19.5753C29.4387 19.9428 29.9371 20.1492 30.4567 20.1492H30.8485C31.0564 20.1492 31.2557 20.2317 31.4027 20.3787C31.5497 20.5257 31.6322 20.725 31.6322 20.9329ZM17.1338 21.7166H16.742C16.5341 21.7166 16.3348 21.634 16.1878 21.487C16.0409 21.3401 15.9583 21.1407 15.9583 20.9329C15.9583 20.725 16.0409 20.5257 16.1878 20.3787C16.3348 20.2317 16.5341 20.1492 16.742 20.1492H17.1338C17.6535 20.1492 18.1518 19.9428 18.5192 19.5753C18.8867 19.2079 19.0931 18.7096 19.0931 18.1899V17.7981C19.0931 17.5902 19.1756 17.3909 19.3226 17.2439C19.4696 17.0969 19.6689 17.0144 19.8768 17.0144C20.0846 17.0144 20.284 17.0969 20.4309 17.2439C20.5779 17.3909 20.6605 17.5902 20.6605 17.7981V18.1899C20.6605 19.1252 20.2889 20.0223 19.6275 20.6836C18.9662 21.345 18.0692 21.7166 17.1338 21.7166Z" fill="#1B4145"/>
</svg>
