<svg width="17" height="17" viewBox="0 0 17 17" fill="none" xmlns="http://www.w3.org/2000/svg">
<path d="M16.7344 8.23484C16.7335 7.50975 16.5353 6.79856 16.1609 6.17759C15.7866 5.55661 15.2502 5.04927 14.6094 4.71C14.5945 4.00618 14.3648 3.32374 13.9511 2.75412C13.5375 2.18451 12.9596 1.75493 12.2949 1.52295C11.6303 1.29097 10.9106 1.26768 10.2323 1.45619C9.55409 1.6447 8.94964 2.03602 8.50002 2.57769C8.05039 2.03602 7.44594 1.6447 6.76768 1.45619C6.08942 1.26768 5.36974 1.29097 4.70509 1.52295C4.04044 1.75493 3.46256 2.18451 3.0489 2.75412C2.63525 3.32374 2.40557 4.00618 2.39064 4.71C1.74916 5.04835 1.2122 5.55537 0.837644 6.17641C0.463086 6.79744 0.265137 7.50893 0.265137 8.23418C0.265137 8.95942 0.463086 9.67091 0.837644 10.2919C1.2122 10.913 1.74916 11.42 2.39064 11.7584C2.4053 12.4623 2.63479 13.1449 3.04835 13.7147C3.46191 14.2845 4.03978 14.7143 4.70449 14.9465C5.36919 15.1786 6.08898 15.202 6.76737 15.0136C7.44575 14.8251 8.05031 14.4337 8.50002 13.892C8.94972 14.4337 9.55428 14.8251 10.2327 15.0136C10.911 15.202 11.6308 15.1786 12.2955 14.9465C12.9603 14.7143 13.5381 14.2845 13.9517 13.7147C14.3652 13.1449 14.5947 12.4623 14.6094 11.7584C15.2504 11.4197 15.787 10.9127 16.1615 10.2918C16.5359 9.67101 16.734 8.95984 16.7344 8.23484ZM5.84377 13.5473C5.44256 13.5473 5.05213 13.4175 4.73078 13.1773C4.40942 12.9371 4.17439 12.5993 4.06076 12.2146C4.12716 12.2146 4.18627 12.2192 4.25002 12.2192H4.78127C4.99261 12.2192 5.1953 12.1353 5.34474 11.9858C5.49418 11.8364 5.57814 11.6337 5.57814 11.4223C5.57814 11.211 5.49418 11.0083 5.34474 10.8589C5.1953 10.7094 4.99261 10.6255 4.78127 10.6255H4.25002C3.68578 10.6259 3.13959 10.4267 2.70808 10.0631C2.27657 9.6996 1.98754 9.19516 1.89214 8.63905C1.79674 8.08294 1.90111 7.51101 2.18679 7.02444C2.47247 6.53787 2.92104 6.16803 3.45314 5.98035C3.60857 5.92539 3.74313 5.82359 3.83828 5.68895C3.93343 5.55432 3.98448 5.39349 3.98439 5.22863V4.78171C3.98439 4.28858 4.18029 3.81564 4.52899 3.46694C4.87769 3.11824 5.35063 2.92234 5.84377 2.92234C6.3369 2.92234 6.80984 3.11824 7.15854 3.46694C7.50724 3.81564 7.70314 4.28858 7.70314 4.78171V8.77804C7.55077 8.68033 7.39089 8.59484 7.22502 8.52238C7.03128 8.43784 6.8119 8.43373 6.61514 8.51094C6.41837 8.58815 6.26033 8.74037 6.1758 8.9341C6.09126 9.12783 6.08714 9.34721 6.16436 9.54398C6.24157 9.74074 6.39378 9.89878 6.58752 9.98332C6.97933 10.154 7.30039 10.4545 7.49665 10.8341C7.69291 11.2138 7.75239 11.6494 7.66509 12.0678C7.57778 12.4862 7.34901 12.8617 7.01729 13.1312C6.68557 13.4006 6.27115 13.5476 5.84377 13.5473ZM12.75 10.6255H12.2188C12.0074 10.6255 11.8047 10.7094 11.6553 10.8589C11.5058 11.0083 11.4219 11.211 11.4219 11.4223C11.4219 11.6337 11.5058 11.8364 11.6553 11.9858C11.8047 12.1353 12.0074 12.2192 12.2188 12.2192H12.75C12.8164 12.2192 12.8762 12.2192 12.9393 12.2146C12.8508 12.5146 12.688 12.7874 12.466 13.0078C12.2441 13.2282 11.9701 13.389 11.6695 13.4754C11.3689 13.5618 11.0513 13.571 10.7462 13.5021C10.4411 13.4332 10.1583 13.2884 9.92404 13.0812C9.68974 12.8739 9.51151 12.611 9.40584 12.3166C9.30017 12.0222 9.27048 11.7059 9.31951 11.3969C9.36854 11.088 9.49472 10.7964 9.68635 10.5492C9.87799 10.302 10.1289 10.1071 10.4158 9.98265C10.6096 9.89812 10.7618 9.74008 10.839 9.54331C10.9162 9.34655 10.9121 9.12717 10.8276 8.93343C10.743 8.7397 10.585 8.58749 10.3882 8.51027C10.1914 8.43306 9.97207 8.43718 9.77834 8.52172C9.61246 8.59418 9.45258 8.67966 9.30021 8.77738V4.78171C9.30021 4.28858 9.49611 3.81564 9.84481 3.46694C10.1935 3.11824 10.6664 2.92234 11.1596 2.92234C11.6527 2.92234 12.1257 3.11824 12.4744 3.46694C12.8231 3.81564 13.019 4.28858 13.019 4.78171V5.22863C13.0189 5.39349 13.0699 5.55432 13.1651 5.68895C13.2602 5.82359 13.3948 5.92539 13.5502 5.98035C14.0847 6.16633 14.5359 6.5359 14.8235 7.0233C15.1111 7.5107 15.2164 8.08433 15.1208 8.64212C15.0252 9.1999 14.7348 9.70568 14.3013 10.0695C13.8678 10.4332 13.3193 10.6314 12.7533 10.6288L12.75 10.6255ZM13.8125 7.70359C13.8125 7.91493 13.7286 8.11762 13.5791 8.26707C13.4297 8.41651 13.227 8.50046 13.0156 8.50046C12.3112 8.50046 11.6355 8.22061 11.1374 7.72247C10.6392 7.22432 10.3594 6.5487 10.3594 5.84421V5.57859C10.3594 5.36725 10.4433 5.16456 10.5928 5.01511C10.7422 4.86567 10.9449 4.78171 11.1563 4.78171C11.3676 4.78171 11.5703 4.86567 11.7197 5.01511C11.8692 5.16456 11.9531 5.36725 11.9531 5.57859V5.84421C11.9531 6.12601 12.0651 6.39626 12.2643 6.59552C12.4636 6.79477 12.7338 6.90671 13.0156 6.90671C13.227 6.90671 13.4297 6.99067 13.5791 7.14011C13.7286 7.28956 13.8125 7.49225 13.8125 7.70359ZM6.64064 5.84421C6.64064 6.5487 6.36079 7.22432 5.86264 7.72247C5.3645 8.22061 4.68887 8.50046 3.98439 8.50046C3.77305 8.50046 3.57036 8.41651 3.42091 8.26707C3.27147 8.11762 3.18752 7.91493 3.18752 7.70359C3.18752 7.49225 3.27147 7.28956 3.42091 7.14011C3.57036 6.99067 3.77305 6.90671 3.98439 6.90671C4.26618 6.90671 4.53643 6.79477 4.73569 6.59552C4.93495 6.39626 5.04689 6.12601 5.04689 5.84421V5.57859C5.04689 5.36725 5.13085 5.16456 5.28029 5.01511C5.42973 4.86567 5.63242 4.78171 5.84377 4.78171C6.05511 4.78171 6.2578 4.86567 6.40724 5.01511C6.55668 5.16456 6.64064 5.36725 6.64064 5.57859V5.84421Z" fill="#7B5D1C"/>
</svg>
