<svg width="19" height="20" viewBox="0 0 19 20" fill="none" xmlns="http://www.w3.org/2000/svg">
<path d="M12.7637 17.3872C12.7637 17.5388 12.7035 17.6841 12.5964 17.7912C12.4892 17.8983 12.3439 17.9585 12.1924 17.9585H6.48003C6.32853 17.9585 6.18323 17.8983 6.0761 17.7912C5.96897 17.6841 5.90879 17.5388 5.90879 17.3872C5.90879 17.2357 5.96897 17.0905 6.0761 16.9833C6.18323 16.8762 6.32853 16.816 6.48003 16.816H12.1924C12.3439 16.816 12.4892 16.8762 12.5964 16.9833C12.7035 17.0905 12.7637 17.2357 12.7637 17.3872ZM15.6199 8.24739C15.6224 9.19968 15.4072 10.1399 14.9909 10.9964C14.5746 11.8529 13.9682 12.603 13.2178 13.1893C13.0775 13.2969 12.9637 13.4351 12.885 13.5934C12.8062 13.7517 12.7648 13.9258 12.7637 14.1026V14.531C12.7637 14.834 12.6433 15.1246 12.4291 15.3389C12.2148 15.5532 11.9242 15.6735 11.6212 15.6735H7.05127C6.74827 15.6735 6.45767 15.5532 6.24342 15.3389C6.02916 15.1246 5.90879 14.834 5.90879 14.531V14.1026C5.90867 13.928 5.86851 13.7556 5.79139 13.5989C5.71428 13.4422 5.60225 13.3053 5.46394 13.1986C4.71547 12.6157 4.10941 11.8702 3.69164 11.0184C3.27388 10.1667 3.05534 9.23106 3.05258 8.28238C3.03402 4.87921 5.78455 2.04514 9.18486 1.96374C10.0227 1.94355 10.8561 2.09116 11.636 2.39789C12.4159 2.70463 13.1266 3.16427 13.7263 3.74979C14.3259 4.3353 14.8023 5.03485 15.1275 5.80725C15.4527 6.57966 15.6201 7.40932 15.6199 8.24739ZM13.3271 7.58047C13.1789 6.75309 12.7809 5.99096 12.1865 5.39668C11.5921 4.8024 10.8299 4.4045 10.0024 4.25656C9.92846 4.24409 9.85275 4.24631 9.77962 4.2631C9.70649 4.27989 9.63739 4.31092 9.57626 4.35442C9.51512 4.39791 9.46316 4.45302 9.42332 4.51661C9.38349 4.58019 9.35656 4.65099 9.34409 4.72498C9.33162 4.79896 9.33384 4.87468 9.35063 4.9478C9.36742 5.02093 9.39845 5.09003 9.44195 5.15117C9.48545 5.2123 9.54056 5.26427 9.60414 5.3041C9.66772 5.34394 9.73852 5.37086 9.81251 5.38333C10.9957 5.58255 11.9997 6.58651 12.2003 7.77183C12.2229 7.90488 12.2919 8.02562 12.395 8.11267C12.4981 8.19972 12.6287 8.24744 12.7637 8.24739C12.796 8.2472 12.8282 8.24457 12.8601 8.23954C13.0094 8.21405 13.1425 8.13029 13.23 8.0067C13.3176 7.88311 13.3525 7.72979 13.3271 7.58047Z" fill="white"/>
</svg>
