<svg width="18" height="18" viewBox="0 0 18 18" fill="none" xmlns="http://www.w3.org/2000/svg">
<path d="M16.3174 13.1313C16.7061 12.3251 16.8968 11.4379 16.8737 10.5432C16.8506 9.64858 16.6143 8.77235 16.1846 7.98733C15.7549 7.20231 15.144 6.53116 14.4028 6.02963C13.6616 5.5281 12.8114 5.21067 11.9228 5.1037C11.6272 4.41631 11.1974 3.7948 10.6585 3.2756C10.1197 2.75639 9.48267 2.34991 8.78477 2.07996C8.08688 1.81001 7.34214 1.68202 6.59417 1.70349C5.84619 1.72495 5.11002 1.89544 4.42875 2.20496C3.74749 2.51449 3.13483 2.95683 2.62665 3.50609C2.11847 4.05534 1.72499 4.70047 1.46925 5.40369C1.2135 6.10691 1.10064 6.8541 1.13726 7.60148C1.17389 8.34887 1.35926 9.08143 1.68254 9.75628L1.17136 11.4937C1.11421 11.6877 1.11039 11.8934 1.1603 12.0894C1.21021 12.2853 1.31201 12.4642 1.45499 12.6072C1.59797 12.7502 1.77684 12.852 1.97279 12.9019C2.16874 12.9518 2.37451 12.948 2.56847 12.8908L4.30589 12.3796C4.86378 12.6477 5.46189 12.8223 6.07636 12.8964C6.3749 13.5959 6.81217 14.2276 7.36175 14.7533C7.91133 15.279 8.5618 15.6877 9.27384 15.9549C9.98589 16.2221 10.7447 16.3421 11.5044 16.3076C12.2642 16.2732 13.0091 16.0851 13.694 15.7546L15.4314 16.2658C15.6253 16.3229 15.831 16.3267 16.0269 16.2768C16.2227 16.2269 16.4015 16.1252 16.5445 15.9823C16.6874 15.8394 16.7893 15.6607 16.8393 15.4648C16.8892 15.269 16.8855 15.0633 16.8286 14.8694L16.3174 13.1313ZM4.35933 11.2146C4.30558 11.2147 4.2521 11.2223 4.20043 11.2371L2.24996 11.8122L2.82441 9.86035C2.86527 9.71933 2.84937 9.56793 2.78011 9.43847C2.27127 8.48685 2.12134 7.38406 2.35765 6.33112C2.59396 5.27819 3.20079 4.34524 4.0675 3.70234C4.93421 3.05944 6.00309 2.7494 7.07929 2.82874C8.1555 2.90809 9.16735 3.37153 9.93041 4.13458C10.6935 4.89764 11.1569 5.9095 11.2362 6.9857C11.3156 8.0619 11.0056 9.13078 10.3626 9.99749C9.71975 10.8642 8.7868 11.471 7.73387 11.7073C6.68093 11.9437 5.57814 11.7937 4.62652 11.2849C4.54469 11.2396 4.45285 11.2154 4.35933 11.2146ZM15.1727 13.2346L15.75 15.1872L13.7981 14.6128C13.6571 14.5719 13.5057 14.5878 13.3762 14.6571C12.3404 15.2102 11.1295 15.3368 10.0016 15.01C8.87378 14.6832 7.91817 13.9289 7.33847 12.9077C8.10866 12.8273 8.85393 12.5886 9.52751 12.2066C10.2011 11.8246 10.7885 11.3075 11.2528 10.6878C11.7171 10.0681 12.0483 9.35908 12.2257 8.60529C12.4031 7.85151 12.4228 7.06921 12.2836 6.30746C12.9546 6.46563 13.5803 6.77589 14.1125 7.21428C14.6446 7.65266 15.0689 8.20746 15.3525 8.83584C15.6362 9.46422 15.7717 10.1494 15.7486 10.8384C15.7254 11.5275 15.5443 12.202 15.2191 12.81C15.1491 12.9402 15.1332 13.0928 15.1748 13.2346H15.1727Z" fill="black"/>
</svg>
