<svg width="22" height="22" viewBox="0 0 22 22" fill="none" xmlns="http://www.w3.org/2000/svg">
<path d="M19.705 15.9149C20.1673 14.9559 20.3942 13.9004 20.3667 12.8361C20.3393 11.7718 20.0582 10.7294 19.547 9.79555C19.0358 8.86167 18.3091 8.06325 17.4273 7.46662C16.5455 6.86999 15.5341 6.49237 14.4771 6.36512C14.1254 5.54737 13.6141 4.80802 12.9731 4.19035C12.332 3.57269 11.5742 3.08913 10.744 2.768C9.91376 2.44686 9.0278 2.2946 8.13799 2.32014C7.24819 2.34567 6.37242 2.54849 5.56197 2.91671C4.75152 3.28492 4.02268 3.81114 3.41814 4.46455C2.8136 5.11796 2.34551 5.88542 2.04127 6.72199C1.73703 7.55856 1.60276 8.44742 1.64633 9.33653C1.6899 10.2256 1.91043 11.0971 2.295 11.8999L1.6869 13.9668C1.61891 14.1976 1.61436 14.4423 1.67374 14.6754C1.73311 14.9086 1.85422 15.1213 2.02431 15.2914C2.1944 15.4615 2.40719 15.5826 2.6403 15.642C2.8734 15.7014 3.1182 15.6968 3.34893 15.6288L5.41581 15.0207C6.07948 15.3396 6.79101 15.5473 7.522 15.6355C7.87714 16.4676 8.39733 17.2191 9.05113 17.8445C9.70492 18.4698 10.4787 18.9561 11.3258 19.274C12.1729 19.5918 13.0756 19.7345 13.9794 19.6936C14.8832 19.6526 15.7693 19.4288 16.5841 19.0357L18.651 19.6438C18.8817 19.7117 19.1264 19.7163 19.3594 19.6569C19.5924 19.5976 19.8051 19.4765 19.9751 19.3066C20.1452 19.1366 20.2663 18.9239 20.3258 18.691C20.3853 18.458 20.3809 18.2133 20.3131 17.9826L19.705 15.9149ZM5.47938 13.6347C5.41544 13.6349 5.35182 13.6439 5.29034 13.6615L2.97002 14.3457L3.6534 12.0237C3.70201 11.856 3.68309 11.6759 3.60071 11.5219C2.99537 10.3898 2.81701 9.07788 3.09813 7.82528C3.37926 6.57269 4.10115 5.46283 5.13221 4.69802C6.16327 3.93321 7.43483 3.56438 8.71511 3.65877C9.99539 3.75316 11.1991 4.30448 12.1069 5.21223C13.0146 6.11998 13.5659 7.3237 13.6603 8.60398C13.7547 9.88426 13.3859 11.1558 12.6211 12.1869C11.8563 13.2179 10.7464 13.9398 9.49381 14.221C8.24122 14.5021 6.92931 14.3237 5.79723 13.7184C5.69988 13.6645 5.59064 13.6358 5.47938 13.6347ZM18.3432 16.0379L19.0299 18.3607L16.7079 17.6773C16.5402 17.6287 16.3601 17.6476 16.2061 17.73C14.9738 18.388 13.5333 18.5387 12.1916 18.1499C10.8499 17.7612 9.71305 16.8637 9.02344 15.6489C9.93967 15.5533 10.8263 15.2694 11.6276 14.8149C12.4289 14.3605 13.1276 13.7453 13.68 13.0081C14.2324 12.2708 14.6264 11.4274 14.8374 10.5307C15.0484 9.63397 15.0719 8.70332 14.9062 7.79713C15.7045 7.9853 16.4489 8.35439 17.0819 8.8759C17.715 9.39742 18.2197 10.0574 18.5572 10.805C18.8946 11.5525 19.0558 12.3676 19.0283 13.1873C19.0008 14.007 18.7853 14.8094 18.3984 15.5327C18.3151 15.6876 18.2962 15.8691 18.3457 16.0379H18.3432Z" fill="#B88416"/>
</svg>
