<svg width="26" height="26" viewBox="0 0 26 26" fill="none" xmlns="http://www.w3.org/2000/svg">
<path d="M21.4895 3.44922H8.75501C8.54392 3.44922 8.34148 3.53307 8.19222 3.68233C8.04296 3.8316 7.9591 4.03404 7.9591 4.24513V8.22466H3.97956C3.76847 8.22466 3.56603 8.30852 3.41677 8.45778C3.26751 8.60704 3.18365 8.80948 3.18365 9.02057V21.7551C3.18365 21.9662 3.26751 22.1686 3.41677 22.3179C3.56603 22.4671 3.76847 22.551 3.97956 22.551H16.7141C16.9252 22.551 17.1276 22.4671 17.2769 22.3179C17.4261 22.1686 17.51 21.9662 17.51 21.7551V17.7755H21.4895C21.7006 17.7755 21.9031 17.6917 22.0523 17.5424C22.2016 17.3932 22.2854 17.1907 22.2854 16.9796V4.24513C22.2854 4.03404 22.2016 3.8316 22.0523 3.68233C21.9031 3.53307 21.7006 3.44922 21.4895 3.44922ZM15.9182 20.9592H4.77547V9.81648H15.9182V20.9592ZM20.6936 16.1837H17.51V9.02057C17.51 8.80948 17.4261 8.60704 17.2769 8.45778C17.1276 8.30852 16.9252 8.22466 16.7141 8.22466H9.55092V5.04103H20.6936V16.1837Z" fill="#333333"/>
</svg>
