<svg width="12" height="12" viewBox="0 0 12 12" fill="none" xmlns="http://www.w3.org/2000/svg">
<path d="M12 7.44V11.28C12 11.471 11.9241 11.6541 11.7891 11.7891C11.6541 11.9241 11.471 12 11.28 12H0.72C0.529044 12 0.345909 11.9241 0.210883 11.7891C0.075857 11.6541 0 11.471 0 11.28V7.44C0 7.24904 0.075857 7.06591 0.210883 6.93088C0.345909 6.79586 0.529044 6.72 0.72 6.72C0.910956 6.72 1.09409 6.79586 1.22912 6.93088C1.36414 7.06591 1.44 7.24904 1.44 7.44V10.56H10.56V7.44C10.56 7.24904 10.6359 7.06591 10.7709 6.93088C10.9059 6.79586 11.089 6.72 11.28 6.72C11.471 6.72 11.6541 6.79586 11.7891 6.93088C11.9241 7.06591 12 7.24904 12 7.44ZM5.4906 7.9494C5.55749 8.01652 5.63697 8.06978 5.72449 8.10612C5.81201 8.14246 5.90584 8.16117 6.0006 8.16117C6.09536 8.16117 6.18919 8.14246 6.27671 8.10612C6.36423 8.06978 6.44371 8.01652 6.5106 7.9494L8.9106 5.5494C9.04586 5.41414 9.12185 5.23069 9.12185 5.0394C9.12185 4.84811 9.04586 4.66466 8.9106 4.5294C8.77534 4.39414 8.59189 4.31815 8.4006 4.31815C8.20931 4.31815 8.02586 4.39414 7.8906 4.5294L6.72 5.7V0.72C6.72 0.529044 6.64414 0.345909 6.50912 0.210883C6.37409 0.075857 6.19096 0 6 0C5.80904 0 5.62591 0.075857 5.49088 0.210883C5.35586 0.345909 5.28 0.529044 5.28 0.72V5.7L4.1094 4.5306C4.04243 4.46363 3.96292 4.4105 3.87541 4.37425C3.7879 4.33801 3.69412 4.31935 3.5994 4.31935C3.40811 4.31935 3.22466 4.39534 3.0894 4.5306C3.02243 4.59757 2.9693 4.67708 2.93305 4.76459C2.89681 4.8521 2.87815 4.94588 2.87815 5.0406C2.87815 5.23189 2.95414 5.41534 3.0894 5.5506L5.4906 7.9494Z" fill="#70737F"/>
</svg>
