<svg width="16" height="16" viewBox="0 0 16 16" fill="none" xmlns="http://www.w3.org/2000/svg">
<path d="M13.5306 4.97L10.0306 1.47C9.96097 1.40026 9.87826 1.34494 9.78721 1.30719C9.69616 1.26944 9.59856 1.25 9.5 1.25H3.5C3.16848 1.25 2.85054 1.3817 2.61612 1.61612C2.3817 1.85054 2.25 2.16848 2.25 2.5V13.5C2.25 13.8315 2.3817 14.1495 2.61612 14.3839C2.85054 14.6183 3.16848 14.75 3.5 14.75H12.5C12.8315 14.75 13.1495 14.6183 13.3839 14.3839C13.6183 14.1495 13.75 13.8315 13.75 13.5V5.5C13.75 5.30124 13.6711 5.11062 13.5306 4.97ZM10 3.5625L11.4375 5H10V3.5625ZM3.75 13.25V2.75H8.5V5.75C8.5 5.94891 8.57902 6.13968 8.71967 6.28033C8.86032 6.42098 9.05109 6.5 9.25 6.5H12.25V13.25H3.75Z" fill="#838589"/>
</svg>
