<svg width="15" height="15" viewBox="0 0 15 15" fill="none" xmlns="http://www.w3.org/2000/svg">
<g clip-path="url(#clip0_2040_235)">
<path d="M14.972 3.0593L12.1595 0.246797C12.081 0.168468 11.988 0.106356 11.8855 0.0640101C11.7831 0.0216639 11.6733 -8.68943e-05 11.5625 2.60887e-07H5.9375C5.56454 2.60887e-07 5.20685 0.148158 4.94313 0.411881C4.67941 0.675604 4.53125 1.03329 4.53125 1.40625V2.8125H3.40625C3.03329 2.8125 2.6756 2.96066 2.41188 3.22438C2.14816 3.4881 2 3.84579 2 4.21875V14.0625C2 14.4355 2.14816 14.7931 2.41188 15.0569C2.6756 15.3206 3.03329 15.4688 3.40625 15.4688H11C11.373 15.4688 11.7306 15.3206 11.9944 15.0569C12.2581 14.7931 12.4062 14.4355 12.4062 14.0625V12.6562H13.8125C14.1855 12.6562 14.5431 12.5081 14.8069 12.2444C15.0706 11.9806 15.2188 11.623 15.2188 11.25V3.65625C15.2188 3.54541 15.1971 3.43565 15.1547 3.33322C15.1124 3.23079 15.0503 3.13771 14.972 3.0593ZM10.7188 13.7812H3.6875V4.5H8.39844L10.7188 6.82031V13.7812ZM13.5312 10.9688H12.4062V6.46875C12.4063 6.35791 12.3846 6.24815 12.3422 6.14572C12.2999 6.04329 12.2378 5.95021 12.1595 5.8718L9.34695 3.0593C9.26854 2.98097 9.17546 2.91886 9.07303 2.87651C8.9706 2.83416 8.86084 2.81241 8.75 2.8125H6.21875V1.6875H11.2109L13.5312 4.00781V10.9688ZM9.59375 9C9.59375 9.22378 9.50485 9.43839 9.34662 9.59662C9.18839 9.75486 8.97378 9.84375 8.75 9.84375H5.65625C5.43247 9.84375 5.21786 9.75486 5.05963 9.59662C4.90139 9.43839 4.8125 9.22378 4.8125 9C4.8125 8.77622 4.90139 8.56161 5.05963 8.40338C5.21786 8.24514 5.43247 8.15625 5.65625 8.15625H8.75C8.97378 8.15625 9.18839 8.24514 9.34662 8.40338C9.50485 8.56161 9.59375 8.77622 9.59375 9ZM9.59375 11.8125C9.59375 12.0363 9.50485 12.2509 9.34662 12.4091C9.18839 12.5674 8.97378 12.6562 8.75 12.6562H5.65625C5.43247 12.6562 5.21786 12.5674 5.05963 12.4091C4.90139 12.2509 4.8125 12.0363 4.8125 11.8125C4.8125 11.5887 4.90139 11.3741 5.05963 11.2159C5.21786 11.0576 5.43247 10.9688 5.65625 10.9688H8.75C8.97378 10.9688 9.18839 11.0576 9.34662 11.2159C9.50485 11.3741 9.59375 11.5887 9.59375 11.8125Z" fill="#4B4943"/>
</g>
<defs>
<clipPath id="clip0_2040_235">
<rect width="15" height="15" fill="white"/>
</clipPath>
</defs>
</svg>
