<svg width="23" height="23" viewBox="0 0 23 23" fill="none" xmlns="http://www.w3.org/2000/svg">
<path d="M11.5 2.15625C9.65198 2.15625 7.84547 2.70425 6.30889 3.73096C4.77232 4.75766 3.57471 6.21695 2.8675 7.9243C2.1603 9.63165 1.97526 11.5104 2.33579 13.3229C2.69632 15.1354 3.58623 16.8003 4.89298 18.107C6.19972 19.4138 7.86462 20.3037 9.67713 20.6642C11.4896 21.0247 13.3684 20.8397 15.0757 20.1325C16.783 19.4253 18.2423 18.2277 19.269 16.6911C20.2958 15.1545 20.8438 13.348 20.8438 11.5C20.8411 9.02269 19.8559 6.64759 18.1041 4.89586C16.3524 3.14413 13.9773 2.15887 11.5 2.15625ZM11.5 19.4062C9.9363 19.4062 8.4077 18.9426 7.10753 18.0738C5.80735 17.2051 4.79399 15.9703 4.19558 14.5256C3.59718 13.0809 3.44061 11.4912 3.74567 9.95757C4.05073 8.4239 4.80373 7.01515 5.90944 5.90944C7.01515 4.80373 8.42391 4.05073 9.95757 3.74567C11.4912 3.4406 13.0809 3.59717 14.5256 4.19558C15.9703 4.79398 17.2051 5.80735 18.0738 7.10752C18.9426 8.4077 19.4063 9.93629 19.4063 11.5C19.4039 13.5961 18.5701 15.6057 17.0879 17.0879C15.6057 18.5701 13.5961 19.4039 11.5 19.4062ZM12.9375 15.8125C12.9375 16.0031 12.8618 16.1859 12.727 16.3207C12.5922 16.4555 12.4094 16.5312 12.2188 16.5312C11.8375 16.5312 11.4719 16.3798 11.2023 16.1102C10.9327 15.8406 10.7813 15.475 10.7813 15.0938V11.5C10.5906 11.5 10.4078 11.4243 10.273 11.2895C10.1382 11.1547 10.0625 10.9719 10.0625 10.7812C10.0625 10.5906 10.1382 10.4078 10.273 10.273C10.4078 10.1382 10.5906 10.0625 10.7813 10.0625C11.1625 10.0625 11.5281 10.214 11.7977 10.4835C12.0673 10.7531 12.2188 11.1188 12.2188 11.5V15.0938C12.4094 15.0938 12.5922 15.1695 12.727 15.3043C12.8618 15.4391 12.9375 15.6219 12.9375 15.8125ZM10.0625 7.54688C10.0625 7.33364 10.1257 7.1252 10.2442 6.9479C10.3627 6.7706 10.531 6.63242 10.728 6.55082C10.925 6.46922 11.1418 6.44787 11.351 6.48947C11.5601 6.53107 11.7522 6.63375 11.903 6.78453C12.0538 6.9353 12.1564 7.12741 12.198 7.33654C12.2396 7.54568 12.2183 7.76245 12.1367 7.95946C12.0551 8.15646 11.9169 8.32484 11.7396 8.4433C11.5623 8.56177 11.3539 8.625 11.1406 8.625C10.8547 8.625 10.5805 8.51141 10.3783 8.30922C10.1761 8.10704 10.0625 7.83281 10.0625 7.54688Z" fill="#959595"/>
</svg>
