<svg width="40" height="40" viewBox="0 0 40 40" fill="none" xmlns="http://www.w3.org/2000/svg">
<rect width="40" height="40" rx="20" fill="#B4E4C9"/>
<path d="M30 20.3479C30 20.5324 29.9247 20.7093 29.7908 20.8398C29.6568 20.9703 29.4752 21.0436 29.2857 21.0436H26.8696L23.4964 27.6157C23.437 27.7312 23.3458 27.8284 23.2329 27.8963C23.1199 27.9642 22.9898 28.0001 22.8571 28H22.8214C22.6829 27.9933 22.5493 27.9475 22.4371 27.8681C22.3248 27.7888 22.2387 27.6793 22.1893 27.553L17.0848 14.501L14.2214 20.6357C14.1647 20.7573 14.0732 20.8604 13.958 20.9327C13.8427 21.005 13.7085 21.0435 13.5714 21.0436H10.7143C10.5248 21.0436 10.3432 20.9703 10.2092 20.8398C10.0753 20.7093 10 20.5324 10 20.3479C10 20.1634 10.0753 19.9865 10.2092 19.856C10.3432 19.7256 10.5248 19.6523 10.7143 19.6523H13.1116L16.4929 12.408C16.5511 12.283 16.6461 12.1776 16.7658 12.105C16.8855 12.0325 17.0246 11.9961 17.1655 12.0003C17.3064 12.0046 17.4428 12.0494 17.5577 12.1291C17.6725 12.2087 17.7605 12.3197 17.8107 12.448L22.9455 25.5783L25.7893 20.0384C25.8484 19.9225 25.9396 19.8249 26.0525 19.7567C26.1655 19.6885 26.2957 19.6523 26.4286 19.6523H29.2857C29.4752 19.6523 29.6568 19.7256 29.7908 19.856C29.9247 19.9865 30 20.1634 30 20.3479Z" fill="black"/>
</svg>
