<svg width="100" height="100" viewBox="0 0 100 100" fill="none" xmlns="http://www.w3.org/2000/svg">
<circle cx="50" cy="50" r="50" fill="url(#paint0_linear_2225_209)"/>
<path d="M62.375 33.5002H56.1428C55.3702 32.6352 54.4237 31.9432 53.3651 31.4693C52.3065 30.9954 51.1598 30.7505 50 30.7505C48.8402 30.7505 47.6935 30.9954 46.6349 31.4693C45.5763 31.9432 44.6298 32.6352 43.8572 33.5002H37.625C36.8957 33.5002 36.1962 33.79 35.6805 34.3057C35.1647 34.8214 34.875 35.5209 34.875 36.2502V65.1252C34.875 65.8546 35.1647 66.5541 35.6805 67.0698C36.1962 67.5855 36.8957 67.8752 37.625 67.8752H62.375C63.1043 67.8752 63.8038 67.5855 64.3195 67.0698C64.8353 66.5541 65.125 65.8546 65.125 65.1252V36.2502C65.125 35.5209 64.8353 34.8214 64.3195 34.3057C63.8038 33.79 63.1043 33.5002 62.375 33.5002ZM50 33.5002C51.4587 33.5002 52.8576 34.0797 53.8891 35.1112C54.9205 36.1426 55.5 37.5415 55.5 39.0002H44.5C44.5 37.5415 45.0795 36.1426 46.1109 35.1112C47.1424 34.0797 48.5413 33.5002 50 33.5002ZM55.5 55.5002H44.5C44.1353 55.5002 43.7856 55.3554 43.5277 55.0975C43.2699 54.8396 43.125 54.4899 43.125 54.1252C43.125 53.7606 43.2699 53.4108 43.5277 53.153C43.7856 52.8951 44.1353 52.7502 44.5 52.7502H55.5C55.8647 52.7502 56.2144 52.8951 56.4723 53.153C56.7301 53.4108 56.875 53.7606 56.875 54.1252C56.875 54.4899 56.7301 54.8396 56.4723 55.0975C56.2144 55.3554 55.8647 55.5002 55.5 55.5002ZM55.5 50.0002H44.5C44.1353 50.0002 43.7856 49.8554 43.5277 49.5975C43.2699 49.3396 43.125 48.9899 43.125 48.6252C43.125 48.2606 43.2699 47.9108 43.5277 47.653C43.7856 47.3951 44.1353 47.2502 44.5 47.2502H55.5C55.8647 47.2502 56.2144 47.3951 56.4723 47.653C56.7301 47.9108 56.875 48.2606 56.875 48.6252C56.875 48.9899 56.7301 49.3396 56.4723 49.5975C56.2144 49.8554 55.8647 50.0002 55.5 50.0002Z" fill="white"/>
<defs>
<linearGradient id="paint0_linear_2225_209" x1="53.6083" y1="100" x2="46.3917" y2="-2.79366e-06" gradientUnits="userSpaceOnUse">
<stop stop-color="#CF9D35"/>
<stop offset="1" stop-color="#E9CA88"/>
</linearGradient>
</defs>
</svg>
