<svg width="239" height="58" viewBox="0 0 239 58" fill="none" xmlns="http://www.w3.org/2000/svg">
<g clip-path="url(#clip0_1582_2154)">
<path d="M0 18.4125L12.739 0L9.87586 18.4125H0Z" fill="url(#paint0_linear_1582_2154)"/>
<path d="M2.57722 30.8881L9.87586 18.4126H0L2.57722 30.8881Z" fill="url(#paint1_linear_1582_2154)"/>
<path d="M11.053 38.4315L2.57721 30.8881L13.7396 26.9287L11.053 38.4315Z" fill="url(#paint2_linear_1582_2154)"/>
<path d="M19.7517 32.6801L13.7396 26.9287L11.053 38.4315L19.7517 32.6801Z" fill="url(#paint3_linear_1582_2154)"/>
<path d="M25.6209 12.6411L13.7396 26.9288L19.7517 32.6801L25.6209 12.6411Z" fill="url(#paint4_linear_1582_2154)"/>
<path d="M12.739 0L25.6209 12.6409L9.87585 18.4125L12.739 0Z" fill="url(#paint5_linear_1582_2154)"/>
<path d="M13.7396 26.9288L9.87585 18.4127L25.6209 12.6411L13.7396 26.9288Z" fill="url(#paint6_linear_1582_2154)"/>
<path d="M2.57721 30.8881L9.87584 18.4126L13.7396 26.9287L2.57721 30.8881Z" fill="url(#paint7_linear_1582_2154)"/>
</g>
<path d="M52.0541 30.6602C50.5021 30.6602 49.0861 30.3002 47.8061 29.5802C46.5261 28.8442 45.5101 27.8282 44.7581 26.5322C44.0221 25.2202 43.6541 23.7482 43.6541 22.1162C43.6541 20.4842 44.0221 19.0202 44.7581 17.7242C45.5101 16.4122 46.5261 15.3962 47.8061 14.6762C49.0861 13.9402 50.5021 13.5722 52.0541 13.5722C53.6221 13.5722 55.0461 13.9402 56.3261 14.6762C57.6061 15.3962 58.6141 16.4042 59.3501 17.7002C60.0861 18.9962 60.4541 20.4682 60.4541 22.1162C60.4541 23.7642 60.0861 25.2362 59.3501 26.5322C58.6141 27.8282 57.6061 28.8442 56.3261 29.5802C55.0461 30.3002 53.6221 30.6602 52.0541 30.6602ZM52.0541 28.7642C53.2221 28.7642 54.2701 28.4922 55.1981 27.9482C56.1421 27.4042 56.8781 26.6282 57.4061 25.6202C57.9501 24.6122 58.2221 23.4442 58.2221 22.1162C58.2221 20.7722 57.9501 19.6042 57.4061 18.6122C56.8781 17.6042 56.1501 16.8282 55.2221 16.2842C54.2941 15.7402 53.2381 15.4682 52.0541 15.4682C50.8701 15.4682 49.8141 15.7402 48.8861 16.2842C47.9581 16.8282 47.2221 17.6042 46.6781 18.6122C46.1501 19.6042 45.8861 20.7722 45.8861 22.1162C45.8861 23.4442 46.1501 24.6122 46.6781 25.6202C47.2221 26.6282 47.9581 27.4042 48.8861 27.9482C49.8301 28.4922 50.8861 28.7642 52.0541 28.7642ZM67.9933 30.7082C66.9853 30.7082 66.0813 30.5402 65.2813 30.2042C64.4813 29.8522 63.8493 29.3722 63.3853 28.7642C62.9213 28.1402 62.6653 27.4282 62.6173 26.6282H64.8733C64.9373 27.2842 65.2413 27.8202 65.7853 28.2362C66.3453 28.6522 67.0733 28.8602 67.9693 28.8602C68.8013 28.8602 69.4573 28.6762 69.9373 28.3082C70.4173 27.9402 70.6573 27.4762 70.6573 26.9162C70.6573 26.3402 70.4013 25.9162 69.8893 25.6442C69.3773 25.3562 68.5853 25.0762 67.5133 24.8042C66.5373 24.5482 65.7373 24.2922 65.1133 24.0362C64.5053 23.7642 63.9773 23.3722 63.5293 22.8602C63.0973 22.3322 62.8813 21.6442 62.8813 20.7962C62.8813 20.1242 63.0813 19.5082 63.4813 18.9482C63.8813 18.3882 64.4493 17.9482 65.1853 17.6282C65.9213 17.2922 66.7613 17.1242 67.7053 17.1242C69.1613 17.1242 70.3373 17.4922 71.2333 18.2282C72.1293 18.9642 72.6093 19.9722 72.6733 21.2522H70.4893C70.4413 20.5642 70.1613 20.0122 69.6493 19.5962C69.1533 19.1802 68.4813 18.9722 67.6333 18.9722C66.8493 18.9722 66.2253 19.1402 65.7613 19.4762C65.2973 19.8122 65.0653 20.2522 65.0653 20.7962C65.0653 21.2282 65.2013 21.5882 65.4733 21.8762C65.7613 22.1482 66.1133 22.3722 66.5293 22.5482C66.9613 22.7082 67.5533 22.8922 68.3053 23.1002C69.2493 23.3562 70.0173 23.6122 70.6093 23.8682C71.2013 24.1082 71.7053 24.4762 72.1213 24.9722C72.5533 25.4682 72.7773 26.1162 72.7933 26.9162C72.7933 27.6362 72.5933 28.2842 72.1933 28.8602C71.7933 29.4362 71.2253 29.8922 70.4893 30.2282C69.7693 30.5482 68.9373 30.7082 67.9933 30.7082ZM91.6923 17.1002C92.7163 17.1002 93.6283 17.3162 94.4283 17.7482C95.2283 18.1642 95.8603 18.7962 96.3243 19.6442C96.7883 20.4922 97.0203 21.5242 97.0203 22.7402V30.4922H94.8603V23.0522C94.8603 21.7402 94.5323 20.7402 93.8763 20.0522C93.2363 19.3482 92.3643 18.9962 91.2603 18.9962C90.1243 18.9962 89.2203 19.3642 88.5483 20.1002C87.8763 20.8202 87.5403 21.8682 87.5403 23.2442V30.4922H85.3803V23.0522C85.3803 21.7402 85.0523 20.7402 84.3963 20.0522C83.7563 19.3482 82.8843 18.9962 81.7803 18.9962C80.6443 18.9962 79.7403 19.3642 79.0683 20.1002C78.3963 20.8202 78.0603 21.8682 78.0603 23.2442V30.4922H75.8763V17.3402H78.0603V19.2362C78.4923 18.5482 79.0683 18.0202 79.7883 17.6522C80.5243 17.2842 81.3323 17.1002 82.2123 17.1002C83.3163 17.1002 84.2923 17.3482 85.1403 17.8442C85.9883 18.3402 86.6203 19.0682 87.0363 20.0282C87.4043 19.1002 88.0123 18.3802 88.8603 17.8682C89.7083 17.3562 90.6523 17.1002 91.6923 17.1002ZM101.731 15.2042C101.315 15.2042 100.963 15.0602 100.675 14.7722C100.387 14.4842 100.243 14.1322 100.243 13.7162C100.243 13.3002 100.387 12.9482 100.675 12.6602C100.963 12.3722 101.315 12.2282 101.731 12.2282C102.131 12.2282 102.467 12.3722 102.739 12.6602C103.027 12.9482 103.171 13.3002 103.171 13.7162C103.171 14.1322 103.027 14.4842 102.739 14.7722C102.467 15.0602 102.131 15.2042 101.731 15.2042ZM102.787 17.3402V30.4922H100.603V17.3402H102.787ZM118.173 17.3402V30.4922H115.989V28.5482C115.573 29.2202 114.989 29.7482 114.237 30.1322C113.501 30.5002 112.685 30.6842 111.789 30.6842C110.765 30.6842 109.845 30.4762 109.029 30.0602C108.213 29.6282 107.565 28.9882 107.085 28.1402C106.621 27.2922 106.389 26.2602 106.389 25.0442V17.3402H108.549V24.7562C108.549 26.0522 108.877 27.0522 109.533 27.7562C110.189 28.4442 111.085 28.7882 112.221 28.7882C113.389 28.7882 114.309 28.4282 114.981 27.7082C115.653 26.9882 115.989 25.9402 115.989 24.5642V17.3402H118.173ZM137.677 17.1002C138.701 17.1002 139.613 17.3162 140.413 17.7482C141.213 18.1642 141.845 18.7962 142.309 19.6442C142.773 20.4922 143.005 21.5242 143.005 22.7402V30.4922H140.845V23.0522C140.845 21.7402 140.517 20.7402 139.861 20.0522C139.221 19.3482 138.349 18.9962 137.245 18.9962C136.109 18.9962 135.205 19.3642 134.533 20.1002C133.861 20.8202 133.525 21.8682 133.525 23.2442V30.4922H131.365V23.0522C131.365 21.7402 131.037 20.7402 130.381 20.0522C129.741 19.3482 128.869 18.9962 127.765 18.9962C126.629 18.9962 125.725 19.3642 125.053 20.1002C124.381 20.8202 124.045 21.8682 124.045 23.2442V30.4922H121.861V17.3402H124.045V19.2362C124.477 18.5482 125.053 18.0202 125.773 17.6522C126.509 17.2842 127.317 17.1002 128.197 17.1002C129.301 17.1002 130.277 17.3482 131.125 17.8442C131.973 18.3402 132.605 19.0682 133.021 20.0282C133.389 19.1002 133.997 18.3802 134.845 17.8682C135.693 17.3562 136.637 17.1002 137.677 17.1002Z" fill="#151515"/>
<defs>
<linearGradient id="paint0_linear_1582_2154" x1="16.8171" y1="3.91498" x2="1.50902" y2="19.8611" gradientUnits="userSpaceOnUse">
<stop offset="0.19" stop-color="#D97C5F"/>
<stop offset="0.35" stop-color="#DD8466"/>
<stop offset="0.9" stop-color="#EA9D7A"/>
</linearGradient>
<linearGradient id="paint1_linear_1582_2154" x1="9.87586" y1="24.6483" x2="0" y2="24.6483" gradientUnits="userSpaceOnUse">
<stop stop-color="#C65F36"/>
<stop offset="0.56" stop-color="#CF6C48"/>
<stop offset="0.61" stop-color="#D16F4C"/>
<stop offset="0.84" stop-color="#DB7F5F"/>
</linearGradient>
<linearGradient id="paint2_linear_1582_2154" x1="12.0326" y1="25.9802" x2="6.52345" y2="35.9182" gradientUnits="userSpaceOnUse">
<stop offset="0.08" stop-color="#C65F36"/>
<stop offset="0.38" stop-color="#CD6844"/>
<stop offset="0.7" stop-color="#D87758"/>
<stop offset="0.79" stop-color="#DA7D5D"/>
<stop offset="0.93" stop-color="#E59370"/>
<stop offset="0.99" stop-color="#EA9D7A"/>
</linearGradient>
<linearGradient id="paint3_linear_1582_2154" x1="12.3185" y1="27.4251" x2="15.6072" y2="36.8388" gradientUnits="userSpaceOnUse">
<stop offset="0.1" stop-color="#D87758"/>
<stop offset="0.45" stop-color="#D87859"/>
<stop offset="0.65" stop-color="#DC8060"/>
<stop offset="0.82" stop-color="#E38D6B"/>
<stop offset="0.93" stop-color="#EA9D7A"/>
</linearGradient>
<linearGradient id="paint4_linear_1582_2154" x1="19.6803" y1="12.6411" x2="19.6803" y2="32.6801" gradientUnits="userSpaceOnUse">
<stop offset="0.19" stop-color="#D97C5F"/>
<stop offset="0.39" stop-color="#F58D6B"/>
</linearGradient>
<linearGradient id="paint5_linear_1582_2154" x1="21.1601" y1="5.22266" x2="7.04806" y2="13.7092" gradientUnits="userSpaceOnUse">
<stop offset="0.04" stop-color="#DD8466"/>
<stop offset="0.23" stop-color="#EA9D7A"/>
<stop offset="0.48" stop-color="#FBC194"/>
</linearGradient>
<linearGradient id="paint6_linear_1582_2154" x1="19.634" y1="10.5464" x2="13.8935" y2="26.9826" gradientUnits="userSpaceOnUse">
<stop stop-color="#D97C5F"/>
<stop offset="0.67" stop-color="#F8A880"/>
</linearGradient>
<linearGradient id="paint7_linear_1582_2154" x1="12.2807" y1="22.4083" x2="1.40831" y2="28.9437" gradientUnits="userSpaceOnUse">
<stop offset="0.02" stop-color="#C65F28"/>
<stop offset="0.57" stop-color="#D87758"/>
<stop offset="0.91" stop-color="#DD8466"/>
</linearGradient>
<clipPath id="clip0_1582_2154">
<rect width="25.6209" height="38.4313" fill="white"/>
</clipPath>
</defs>
</svg>
