<svg width="19" height="18" viewBox="0 0 19 18" fill="none" xmlns="http://www.w3.org/2000/svg">
<g clip-path="url(#clip0_1951_778)">
<path d="M13.6663 2H15.2497C15.6696 2 16.0723 2.15804 16.3693 2.43934C16.6662 2.72064 16.833 3.10218 16.833 3.5V14C16.833 14.3978 16.6662 14.7794 16.3693 15.0607C16.0723 15.342 15.6696 15.5 15.2497 15.5H10.8955" stroke="#070B0E" stroke-width="1.3" stroke-linecap="round" stroke-linejoin="round"/>
<path d="M4.16699 9.125V3.5C4.16699 3.10218 4.33381 2.72064 4.63074 2.43934C4.92767 2.15804 5.3304 2 5.75033 2H7.33366" stroke="#070B0E" stroke-width="1.3" stroke-linecap="round" stroke-linejoin="round"/>
<path d="M11.5909 10.7196C11.7471 10.5717 11.871 10.3961 11.9555 10.2028C12.04 10.0095 12.0835 9.80232 12.0835 9.59311C12.0835 9.3839 12.04 9.17674 11.9555 8.98345C11.871 8.79017 11.7471 8.61455 11.5909 8.46661C11.4348 8.31868 11.2494 8.20133 11.0454 8.12127C10.8414 8.04121 10.6227 8 10.4019 8C10.181 8 9.96235 8.04121 9.75833 8.12127C9.5543 8.20133 9.36892 8.31868 9.21277 8.46661L5.24652 12.2256C5.0583 12.4038 4.92053 12.6241 4.84594 12.8661L4.18331 15.0186C4.16345 15.0831 4.16225 15.1516 4.17986 15.2167C4.19748 15.2818 4.23324 15.3412 4.28342 15.3888C4.33359 15.4363 4.39634 15.4702 4.46508 15.4869C4.53382 15.5036 4.60603 15.5024 4.67415 15.4836L6.94623 14.8559C7.20167 14.7852 7.4342 14.6547 7.62231 14.4764L11.5909 10.7196Z" stroke="#070B0E" stroke-width="1.3" stroke-linecap="round" stroke-linejoin="round"/>
<path d="M13.6663 0.5H7.33301V3.5H13.6663V0.5Z" stroke="#070B0E" stroke-width="1.3" stroke-linecap="round" stroke-linejoin="round"/>
</g>
<defs>
<clipPath id="clip0_1951_778">
<rect width="19" height="18" fill="white"/>
</clipPath>
</defs>
</svg>
