<svg width="40" height="40" viewBox="0 0 40 40" fill="none" xmlns="http://www.w3.org/2000/svg">
<rect width="40" height="40" rx="20" fill="#B0E5FC"/>
<g clip-path="url(#clip0_1895_209)">
<path d="M23.1052 13.2222H24.8552C25.3194 13.2222 25.7645 13.3978 26.0927 13.7103C26.4208 14.0229 26.6052 14.4468 26.6052 14.8888V26.5555C26.6052 26.9975 26.4208 27.4215 26.0927 27.734C25.7645 28.0466 25.3194 28.2222 24.8552 28.2222H20.0427" stroke="#070B0E" stroke-width="1.5" stroke-linecap="round" stroke-linejoin="round"/>
<path d="M12.6053 21.1388V14.8888C12.6053 14.4468 12.7897 14.0229 13.1179 13.7103C13.4461 13.3978 13.8912 13.2222 14.3553 13.2222H16.1053" stroke="#070B0E" stroke-width="1.5" stroke-linecap="round" stroke-linejoin="round"/>
<path d="M20.8111 22.9105C20.9837 22.7461 21.1206 22.551 21.214 22.3362C21.3074 22.1214 21.3555 21.8913 21.3555 21.6588C21.3555 21.4263 21.3074 21.1962 21.214 20.9814C21.1206 20.7666 20.9837 20.5715 20.8111 20.4071C20.6385 20.2428 20.4336 20.1124 20.2081 20.0234C19.9826 19.9345 19.7409 19.8887 19.4968 19.8887C19.2527 19.8887 19.0111 19.9345 18.7856 20.0234C18.5601 20.1124 18.3552 20.2428 18.1826 20.4071L13.7988 24.5838C13.5908 24.7818 13.4385 25.0266 13.3561 25.2955L12.6237 27.6871C12.6017 27.7588 12.6004 27.8348 12.6199 27.9072C12.6394 27.9796 12.6789 28.0456 12.7343 28.0984C12.7898 28.1512 12.8591 28.1889 12.9351 28.2074C13.0111 28.226 13.0909 28.2247 13.1662 28.2038L15.6775 27.5063C15.9598 27.4278 16.2168 27.2828 16.4247 27.0846L20.8111 22.9105Z" stroke="#070B0E" stroke-width="1.5" stroke-linecap="round" stroke-linejoin="round"/>
<path d="M23.1052 11.5557H16.1052V14.889H23.1052V11.5557Z" stroke="#070B0E" stroke-width="1.5" stroke-linecap="round" stroke-linejoin="round"/>
</g>
<defs>
<clipPath id="clip0_1895_209">
<rect width="21" height="20" fill="white" transform="translate(8 11)"/>
</clipPath>
</defs>
</svg>
