<svg width="47" height="45" viewBox="0 0 47 45" fill="none" xmlns="http://www.w3.org/2000/svg">
<ellipse cx="23.7952" cy="22.5" rx="23.1009" ry="22.5" fill="#D5F0F3"/>
<path d="M31.7677 19.0239L26.8913 14.1476C26.8266 14.0829 26.7498 14.0317 26.6652 13.9967C26.5806 13.9617 26.49 13.9438 26.3985 13.9438H18.0391C17.6695 13.9438 17.3152 14.0906 17.0539 14.3519C16.7926 14.6132 16.6458 14.9676 16.6458 15.3371V30.6627C16.6458 31.0322 16.7926 31.3866 17.0539 31.6479C17.3152 31.9092 17.6695 32.056 18.0391 32.056H30.5782C30.9477 32.056 31.3021 31.9092 31.5634 31.6479C31.8247 31.3866 31.9714 31.0322 31.9714 30.6627V19.5168C31.9715 19.4253 31.9536 19.3347 31.9186 19.2501C31.8836 19.1655 31.8324 19.0887 31.7677 19.0239ZM27.0951 16.3219L29.5934 18.8202H27.0951V16.3219ZM30.5782 30.6627H18.0391V15.3371H25.7019V19.5168C25.7019 19.7016 25.7753 19.8787 25.9059 20.0094C26.0365 20.14 26.2137 20.2134 26.3985 20.2134H30.5782V30.6627ZM27.7917 23.6965C27.7917 23.8813 27.7183 24.0585 27.5877 24.1891C27.4571 24.3198 27.2799 24.3931 27.0951 24.3931H21.5222C21.3374 24.3931 21.1602 24.3198 21.0296 24.1891C20.8989 24.0585 20.8255 23.8813 20.8255 23.6965C20.8255 23.5118 20.8989 23.3346 21.0296 23.2039C21.1602 23.0733 21.3374 22.9999 21.5222 22.9999H27.0951C27.2799 22.9999 27.4571 23.0733 27.5877 23.2039C27.7183 23.3346 27.7917 23.5118 27.7917 23.6965ZM27.7917 26.483C27.7917 26.6678 27.7183 26.8449 27.5877 26.9756C27.4571 27.1062 27.2799 27.1796 27.0951 27.1796H21.5222C21.3374 27.1796 21.1602 27.1062 21.0296 26.9756C20.8989 26.8449 20.8255 26.6678 20.8255 26.483C20.8255 26.2983 20.8989 26.1211 21.0296 25.9904C21.1602 25.8598 21.3374 25.7864 21.5222 25.7864H27.0951C27.2799 25.7864 27.4571 25.8598 27.5877 25.9904C27.7183 26.1211 27.7917 26.2983 27.7917 26.483Z" fill="#1B4145"/>
</svg>
