<svg width="56" height="56" viewBox="0 0 56 56" fill="none" xmlns="http://www.w3.org/2000/svg">
<rect width="56" height="56" rx="20" fill="#F3F1EE"/>
<path d="M29.8125 23.125V27.54L33.4809 29.7408C33.6657 29.8518 33.7988 30.0316 33.851 30.2408C33.9032 30.4499 33.8702 30.6712 33.7592 30.856C33.6482 31.0407 33.4684 31.1739 33.2593 31.2261C33.0501 31.2783 32.8288 31.2452 32.6441 31.1342L28.5816 28.6967C28.4613 28.6245 28.3618 28.5224 28.2928 28.4003C28.2237 28.2782 28.1875 28.1403 28.1875 28V23.125C28.1875 22.9095 28.2731 22.7029 28.4255 22.5505C28.5778 22.3981 28.7845 22.3125 29 22.3125C29.2155 22.3125 29.4222 22.3981 29.5745 22.5505C29.7269 22.7029 29.8125 22.9095 29.8125 23.125ZM29 18.25C27.7183 18.2468 26.4486 18.4979 25.2646 18.9886C24.0805 19.4794 23.0056 20.2001 22.1019 21.109C21.3635 21.8565 20.7074 22.5756 20.0625 23.3282V21.5C20.0625 21.2845 19.9769 21.0779 19.8245 20.9255C19.6722 20.7731 19.4655 20.6875 19.25 20.6875C19.0345 20.6875 18.8278 20.7731 18.6755 20.9255C18.5231 21.0779 18.4375 21.2845 18.4375 21.5V25.5625C18.4375 25.778 18.5231 25.9847 18.6755 26.1371C18.8278 26.2894 19.0345 26.375 19.25 26.375H23.3125C23.528 26.375 23.7347 26.2894 23.887 26.1371C24.0394 25.9847 24.125 25.778 24.125 25.5625C24.125 25.347 24.0394 25.1404 23.887 24.988C23.7347 24.8356 23.528 24.75 23.3125 24.75H20.9766C21.7027 23.8949 22.4259 23.0895 23.2505 22.2546C24.3798 21.1254 25.8167 20.354 27.3819 20.0368C28.947 19.7196 30.5709 19.8706 32.0507 20.4711C33.5305 21.0715 34.8005 22.0947 35.7021 23.4129C36.6037 24.731 37.0968 26.2856 37.1199 27.8824C37.143 29.4792 36.6951 31.0474 35.832 32.391C34.9689 33.7347 33.729 34.7942 32.2672 35.4372C30.8054 36.0802 29.1866 36.2782 27.6129 36.0063C26.0392 35.7345 24.5806 35.005 23.4191 33.9089C23.3415 33.8356 23.2502 33.7782 23.1504 33.7402C23.0506 33.7021 22.9443 33.6841 22.8376 33.6871C22.7308 33.6901 22.6257 33.7141 22.5282 33.7578C22.4307 33.8014 22.3428 33.8638 22.2695 33.9414C22.1961 34.0191 22.1387 34.1104 22.1007 34.2102C22.0626 34.3099 22.0446 34.4163 22.0476 34.523C22.0506 34.6298 22.0746 34.7349 22.1183 34.8324C22.1619 34.9298 22.2243 35.0178 22.302 35.0911C23.4592 36.1832 24.8662 36.9754 26.4 37.3987C27.9339 37.822 29.548 37.8634 31.1015 37.5194C32.6551 37.1754 34.1008 36.4564 35.3126 35.4252C36.5244 34.394 37.4654 33.0818 38.0534 31.6033C38.6414 30.1247 38.8587 28.5248 38.6862 26.943C38.5137 25.3611 37.9566 23.8456 37.0637 22.5286C36.1708 21.2116 34.9691 20.1331 33.5635 19.3873C32.1579 18.6415 30.5912 18.2511 29 18.25Z" fill="black"/>
</svg>
