<svg width="17" height="17" viewBox="0 0 17 17" fill="none" xmlns="http://www.w3.org/2000/svg">
<path d="M8.49893 4.05909C7.81859 4.05909 7.15353 4.26083 6.58785 4.6388C6.02217 5.01678 5.58128 5.55401 5.32093 6.18256C5.06058 6.8111 4.99246 7.50274 5.12518 8.17C5.25791 8.83727 5.58552 9.45019 6.06659 9.93126C6.54766 10.4123 7.16058 10.7399 7.82785 10.8727C8.49511 11.0054 9.18675 10.9373 9.81529 10.6769C10.4438 10.4166 10.9811 9.97568 11.359 9.41C11.737 8.84432 11.9388 8.17926 11.9388 7.49893C11.9378 6.58691 11.5751 5.71253 10.9302 5.06764C10.2853 4.42275 9.41094 4.06004 8.49893 4.05909ZM8.49893 9.79215C8.04537 9.79215 7.602 9.65765 7.22488 9.40567C6.84776 9.15369 6.55383 8.79554 6.38026 8.3765C6.20669 7.95747 6.16128 7.49638 6.24976 7.05154C6.33825 6.6067 6.55666 6.19808 6.87737 5.87737C7.19808 5.55666 7.6067 5.33825 8.05154 5.24976C8.49638 5.16128 8.95747 5.20669 9.3765 5.38026C9.79554 5.55383 10.1537 5.84776 10.4057 6.22488C10.6577 6.602 10.7922 7.04537 10.7922 7.49893C10.7922 8.10713 10.5505 8.69042 10.1205 9.12048C9.69042 9.55054 9.10713 9.79215 8.49893 9.79215ZM14.8053 7.65372C14.8082 7.55052 14.8082 7.44733 14.8053 7.34413L15.8745 6.00833C15.9306 5.93819 15.9694 5.85587 15.9878 5.76799C16.0062 5.68011 16.0037 5.58913 15.9806 5.50239C15.8053 4.84351 15.5431 4.21091 15.2009 3.62122C15.1561 3.54406 15.0939 3.47841 15.0192 3.42952C14.9446 3.38062 14.8595 3.34983 14.7709 3.33959L13.071 3.1504C13.0003 3.07587 12.9287 3.0042 12.8561 2.93541L12.6554 1.23125C12.6451 1.14254 12.6142 1.05747 12.5652 0.982818C12.5161 0.908166 12.4503 0.845999 12.373 0.801273C11.7831 0.459688 11.1506 0.197749 10.4919 0.0222931C10.4051 -0.000784666 10.3141 -0.00314505 10.2262 0.0154022C10.1383 0.0339494 10.056 0.0728854 9.98594 0.129071L8.65372 1.19255C8.55052 1.19255 8.44733 1.19255 8.34413 1.19255L7.00833 0.125488C6.93819 0.0694249 6.85587 0.0306189 6.76799 0.0121966C6.68011 -0.00622568 6.58913 -0.00374927 6.50239 0.0194265C5.84362 0.195021 5.21105 0.457206 4.62122 0.799123C4.54406 0.843931 4.47841 0.906135 4.42952 0.980782C4.38062 1.05543 4.34983 1.14046 4.33959 1.2291L4.1504 2.93182C4.07587 3.00301 4.0042 3.07467 3.93541 3.14681L2.23125 3.34245C2.14254 3.35277 2.05747 3.38368 1.98282 3.4327C1.90817 3.48172 1.846 3.54751 1.80127 3.62481C1.45969 4.21471 1.19775 4.84727 1.02229 5.50597C0.999215 5.59277 0.996855 5.68378 1.0154 5.77166C1.03395 5.85954 1.07289 5.94184 1.12907 6.01191L2.19255 7.34413C2.19255 7.44733 2.19255 7.55052 2.19255 7.65372L1.12549 8.98952C1.06942 9.05966 1.03062 9.14198 1.0122 9.22986C0.993774 9.31774 0.996251 9.40872 1.01943 9.49546C1.19471 10.1543 1.45691 10.7869 1.79912 11.3766C1.84393 11.4538 1.90613 11.5194 1.98078 11.5683C2.05543 11.6172 2.14046 11.648 2.2291 11.6583L3.92896 11.8475C4.00014 11.922 4.07181 11.9936 4.14395 12.0624L4.34245 13.7666C4.35277 13.8553 4.38368 13.9404 4.4327 14.015C4.48172 14.0897 4.54751 14.1519 4.62481 14.1966C5.21471 14.5382 5.84727 14.8001 6.50597 14.9756C6.59277 14.9986 6.68378 15.001 6.77166 14.9824C6.85954 14.9639 6.94184 14.925 7.01191 14.8688L8.34413 13.8053C8.44733 13.8082 8.55052 13.8082 8.65372 13.8053L9.98952 14.8745C10.0597 14.9306 10.142 14.9694 10.2299 14.9878C10.3177 15.0062 10.4087 15.0037 10.4955 14.9806C11.1543 14.8053 11.7869 14.5431 12.3766 14.2009C12.4538 14.1561 12.5194 14.0939 12.5683 14.0192C12.6172 13.9446 12.648 13.8595 12.6583 13.7709L12.8475 12.071C12.922 12.0003 12.9936 11.9287 13.0624 11.8561L14.7666 11.6554C14.8553 11.6451 14.9404 11.6142 15.015 11.5652C15.0897 11.5161 15.1519 11.4503 15.1966 11.373C15.5382 10.7831 15.8001 10.1506 15.9756 9.49188C15.9986 9.40508 16.001 9.31407 15.9824 9.22619C15.9639 9.13831 15.925 9.05601 15.8688 8.98594L14.8053 7.65372ZM13.6515 7.18791C13.6637 7.39507 13.6637 7.60278 13.6515 7.80994C13.643 7.95178 13.6874 8.09173 13.7762 8.20266L14.7931 9.47325C14.6764 9.84408 14.527 10.2038 14.3467 10.5482L12.7271 10.7317C12.586 10.7473 12.4558 10.8147 12.3616 10.9208C12.2236 11.076 12.0767 11.2229 11.9216 11.3609C11.8154 11.4551 11.748 11.5853 11.7324 11.7263L11.5525 13.3445C11.2082 13.525 10.8484 13.6744 10.4775 13.791L9.20624 12.7741C9.10451 12.6928 8.97814 12.6485 8.84793 12.6486H8.81353C8.60636 12.6608 8.39866 12.6608 8.19149 12.6486C8.04966 12.6401 7.9097 12.6845 7.79877 12.7733L6.5246 13.791C6.15377 13.6743 5.79404 13.5249 5.44965 13.3445L5.26619 11.7271C5.25054 11.586 5.18313 11.4558 5.077 11.3616C4.92186 11.2236 4.77494 11.0767 4.63699 10.9216C4.54278 10.8154 4.41255 10.748 4.27151 10.7324L2.65335 10.5518C2.4729 10.2074 2.32348 9.8477 2.20689 9.47683L3.22379 8.20553C3.31258 8.0946 3.35702 7.95464 3.34848 7.81281C3.3363 7.60564 3.3363 7.39794 3.34848 7.19077C3.35702 7.04894 3.31258 6.90899 3.22379 6.79806L2.20689 5.5246C2.32357 5.15377 2.47298 4.79404 2.65335 4.44965L4.27079 4.26619C4.41183 4.25054 4.54206 4.18313 4.63627 4.077C4.77422 3.92186 4.92114 3.77494 5.07629 3.63699C5.18283 3.54271 5.25052 3.41219 5.26619 3.27079L5.44607 1.65335C5.79041 1.4729 6.15015 1.32348 6.52102 1.20689L7.79233 2.22379C7.90325 2.31258 8.04321 2.35702 8.18504 2.34848C8.39221 2.3363 8.59991 2.3363 8.80708 2.34848C8.94891 2.35702 9.08886 2.31258 9.19979 2.22379L10.4732 1.20689C10.8441 1.32357 11.2038 1.47298 11.5482 1.65335L11.7317 3.27079C11.7473 3.41183 11.8147 3.54206 11.9208 3.63627C12.076 3.77422 12.2229 3.92114 12.3609 4.07629C12.4551 4.18241 12.5853 4.24982 12.7263 4.26548L14.3445 4.44535C14.525 4.7897 14.6744 5.14944 14.791 5.5203L13.7741 6.79161C13.6844 6.90347 13.6399 7.04486 13.6494 7.18791H13.6515Z" fill="black"/>
</svg>
