<svg width="21" height="21" viewBox="0 0 21 21" fill="none" xmlns="http://www.w3.org/2000/svg">
<g clip-path="url(#clip0_1895_343)">
<path d="M16.9102 11.74C16.9118 11.9927 16.835 12.2398 16.6904 12.4471C16.5458 12.6544 16.3405 12.8119 16.1027 12.8977L12.1055 14.3748L10.6331 18.3751C10.5459 18.6119 10.3882 18.8164 10.1812 18.9608C9.97412 19.1052 9.72778 19.1826 9.47536 19.1826C9.22295 19.1826 8.9766 19.1052 8.76957 18.9608C8.56254 18.8164 8.40479 18.6119 8.31759 18.3751L6.8359 14.3748L2.83562 12.9024C2.59874 12.8152 2.39431 12.6574 2.24991 12.4504C2.1055 12.2434 2.02808 11.997 2.02808 11.7446C2.02808 11.4922 2.1055 11.2458 2.24991 11.0388C2.39431 10.8318 2.59874 10.674 2.83562 10.5868L6.8359 9.10514L8.30829 5.10486C8.39549 4.86799 8.55324 4.66355 8.76027 4.51915C8.96731 4.37475 9.21365 4.29732 9.46607 4.29732C9.71848 4.29732 9.96482 4.37475 10.1719 4.51915C10.3789 4.66355 10.5366 4.86799 10.6238 5.10486L12.1055 9.10514L16.1058 10.5775C16.3437 10.6642 16.5489 10.8225 16.693 11.0307C16.8371 11.239 16.913 11.4868 16.9102 11.74ZM12.5705 4.30047H13.8104V5.54038C13.8104 5.70481 13.8757 5.8625 13.992 5.97876C14.1083 6.09503 14.2659 6.16034 14.4304 6.16034C14.5948 6.16034 14.7525 6.09503 14.8687 5.97876C14.985 5.8625 15.0503 5.70481 15.0503 5.54038V4.30047H16.2902C16.4547 4.30047 16.6124 4.23515 16.7286 4.11889C16.8449 4.00262 16.9102 3.84494 16.9102 3.68051C16.9102 3.51609 16.8449 3.3584 16.7286 3.24214C16.6124 3.12587 16.4547 3.06056 16.2902 3.06056H15.0503V1.82064C15.0503 1.65622 14.985 1.49853 14.8687 1.38226C14.7525 1.266 14.5948 1.20068 14.4304 1.20068C14.2659 1.20068 14.1083 1.266 13.992 1.38226C13.8757 1.49853 13.8104 1.65622 13.8104 1.82064V3.06056H12.5705C12.4061 3.06056 12.2484 3.12587 12.1321 3.24214C12.0159 3.3584 11.9505 3.51609 11.9505 3.68051C11.9505 3.84494 12.0159 4.00262 12.1321 4.11889C12.2484 4.23515 12.4061 4.30047 12.5705 4.30047ZM19.39 6.7803H18.7701V6.16034C18.7701 5.99592 18.7048 5.83823 18.5885 5.72197C18.4722 5.6057 18.3145 5.54038 18.1501 5.54038C17.9857 5.54038 17.828 5.6057 17.7117 5.72197C17.5955 5.83823 17.5302 5.99592 17.5302 6.16034V6.7803H16.9102C16.7458 6.7803 16.5881 6.84562 16.4718 6.96188C16.3556 7.07815 16.2902 7.23583 16.2902 7.40026C16.2902 7.56468 16.3556 7.72237 16.4718 7.83863C16.5881 7.9549 16.7458 8.02021 16.9102 8.02021H17.5302V8.64017C17.5302 8.80459 17.5955 8.96228 17.7117 9.07855C17.828 9.19481 17.9857 9.26013 18.1501 9.26013C18.3145 9.26013 18.4722 9.19481 18.5885 9.07855C18.7048 8.96228 18.7701 8.80459 18.7701 8.64017V8.02021H19.39C19.5545 8.02021 19.7121 7.9549 19.8284 7.83863C19.9447 7.72237 20.01 7.56468 20.01 7.40026C20.01 7.23583 19.9447 7.07815 19.8284 6.96188C19.7121 6.84562 19.5545 6.7803 19.39 6.7803Z" fill="#B88416"/>
</g>
<defs>
<clipPath id="clip0_1895_343">
<rect width="19.8386" height="19.8386" fill="white" transform="translate(0.79126 0.580566)"/>
</clipPath>
</defs>
</svg>
