<svg width="20" height="20" viewBox="0 0 20 20" fill="none" xmlns="http://www.w3.org/2000/svg">
<path d="M15.6548 11.0701C15.6563 11.3082 15.5839 11.5409 15.4477 11.7362C15.3115 11.9315 15.1181 12.0798 14.8942 12.1607L11.129 13.552L9.74207 17.3201C9.65994 17.5432 9.51134 17.7358 9.31633 17.8718C9.12132 18.0078 8.88927 18.0808 8.6515 18.0808C8.41374 18.0808 8.18169 18.0078 7.98668 17.8718C7.79167 17.7358 7.64307 17.5432 7.56093 17.3201L6.16524 13.552L2.39715 12.1651C2.17402 12.0829 1.98145 11.9343 1.84543 11.7393C1.70941 11.5443 1.63647 11.3123 1.63647 11.0745C1.63647 10.8367 1.70941 10.6047 1.84543 10.4097C1.98145 10.2147 2.17402 10.0661 2.39715 9.98394L6.16524 8.58824L7.55217 4.82015C7.63431 4.59702 7.78291 4.40445 7.97792 4.26843C8.17293 4.13241 8.40498 4.05948 8.64275 4.05948C8.88051 4.05948 9.11256 4.13241 9.30757 4.26843C9.50258 4.40445 9.65118 4.59702 9.73332 4.82015L11.129 8.58824L14.8971 9.97518C15.1212 10.0568 15.3145 10.2059 15.4502 10.4021C15.5859 10.5982 15.6574 10.8316 15.6548 11.0701ZM11.567 4.06245H12.7349V5.23039C12.7349 5.38527 12.7965 5.53381 12.906 5.64332C13.0155 5.75284 13.164 5.81437 13.3189 5.81437C13.4738 5.81437 13.6223 5.75284 13.7318 5.64332C13.8414 5.53381 13.9029 5.38527 13.9029 5.23039V4.06245H15.0708C15.2257 4.06245 15.3742 4.00092 15.4838 3.8914C15.5933 3.78189 15.6548 3.63335 15.6548 3.47847C15.6548 3.32359 15.5933 3.17506 15.4838 3.06554C15.3742 2.95602 15.2257 2.8945 15.0708 2.8945H13.9029V1.72655C13.9029 1.57167 13.8414 1.42314 13.7318 1.31362C13.6223 1.2041 13.4738 1.14258 13.3189 1.14258C13.164 1.14258 13.0155 1.2041 12.906 1.31362C12.7965 1.42314 12.7349 1.57167 12.7349 1.72655V2.8945H11.567C11.4121 2.8945 11.2636 2.95602 11.1541 3.06554C11.0445 3.17506 10.983 3.32359 10.983 3.47847C10.983 3.63335 11.0445 3.78189 11.1541 3.8914C11.2636 4.00092 11.4121 4.06245 11.567 4.06245ZM17.9907 6.39834H17.4067V5.81437C17.4067 5.65949 17.3452 5.51095 17.2357 5.40143C17.1262 5.29192 16.9776 5.23039 16.8228 5.23039C16.6679 5.23039 16.5193 5.29192 16.4098 5.40143C16.3003 5.51095 16.2388 5.65949 16.2388 5.81437V6.39834H15.6548C15.4999 6.39834 15.3514 6.45987 15.2419 6.56938C15.1324 6.6789 15.0708 6.82743 15.0708 6.98231C15.0708 7.13719 15.1324 7.28573 15.2419 7.39525C15.3514 7.50476 15.4999 7.56629 15.6548 7.56629H16.2388V8.15026C16.2388 8.30514 16.3003 8.45368 16.4098 8.56319C16.5193 8.67271 16.6679 8.73423 16.8228 8.73423C16.9776 8.73423 17.1262 8.67271 17.2357 8.56319C17.3452 8.45368 17.4067 8.30514 17.4067 8.15026V7.56629H17.9907C18.1456 7.56629 18.2941 7.50476 18.4036 7.39525C18.5131 7.28573 18.5747 7.13719 18.5747 6.98231C18.5747 6.82743 18.5131 6.6789 18.4036 6.56938C18.2941 6.45987 18.1456 6.39834 17.9907 6.39834Z" fill="white"/>
</svg>
