<svg width="21" height="21" viewBox="0 0 21 21" fill="none" xmlns="http://www.w3.org/2000/svg">
<path d="M18.5825 4.62743L10.7075 2.00243C10.5728 1.95752 10.4272 1.95752 10.2925 2.00243L2.41746 4.62743C2.28679 4.67099 2.17314 4.75456 2.0926 4.86631C2.01207 4.97806 1.96874 5.11231 1.96875 5.25005V11.8125C1.96875 11.9866 2.03789 12.1535 2.16096 12.2766C2.28403 12.3997 2.45095 12.4688 2.625 12.4688C2.79905 12.4688 2.96597 12.3997 3.08904 12.2766C3.21211 12.1535 3.28125 11.9866 3.28125 11.8125V6.1606L6.03668 7.07853C5.3046 8.26125 5.0718 9.68617 5.3894 11.0404C5.707 12.3946 6.54904 13.5675 7.73062 14.3014C6.25406 14.8805 4.97766 15.9281 4.04414 17.3603C3.99559 17.4325 3.96187 17.5136 3.94493 17.5989C3.928 17.6842 3.92819 17.772 3.94549 17.8572C3.96279 17.9425 3.99687 18.0234 4.04573 18.0954C4.09459 18.1673 4.15726 18.2288 4.23011 18.2763C4.30295 18.3238 4.38451 18.3564 4.47005 18.3721C4.55559 18.3878 4.6434 18.3864 4.72838 18.3679C4.81335 18.3493 4.8938 18.3141 4.96504 18.2642C5.03628 18.2143 5.09689 18.1508 5.14336 18.0773C6.37957 16.1807 8.33191 15.0938 10.5 15.0938C12.6681 15.0938 14.6204 16.1807 15.8566 18.0773C15.9529 18.2203 16.1016 18.3198 16.2706 18.3541C16.4395 18.3884 16.6152 18.3548 16.7596 18.2606C16.9041 18.1664 17.0056 18.0192 17.0423 17.8507C17.079 17.6822 17.048 17.5061 16.9559 17.3603C16.0223 15.9281 14.741 14.8805 13.2694 14.3014C14.4498 13.5675 15.2911 12.3954 15.6086 11.0422C15.9262 9.68894 15.6941 8.26501 14.9633 7.08263L18.5825 5.87677C18.7132 5.83323 18.8269 5.74967 18.9075 5.63792C18.988 5.52618 19.0314 5.39191 19.0314 5.25415C19.0314 5.11639 18.988 4.98213 18.9075 4.87038C18.8269 4.75863 18.7132 4.67507 18.5825 4.63153V4.62743ZM14.4375 9.8438C14.4377 10.4663 14.2903 11.08 14.0073 11.6345C13.7244 12.189 13.3141 12.6685 12.8099 13.0337C12.3058 13.3988 11.7223 13.6393 11.1072 13.7353C10.4922 13.8313 9.86314 13.7801 9.2717 13.5859C8.68027 13.3917 8.1433 13.0601 7.70486 12.6182C7.26642 12.1763 6.939 11.6367 6.74946 11.0438C6.55992 10.4509 6.51367 9.82143 6.61449 9.20715C6.71532 8.59287 6.96036 8.01125 7.32949 7.51001L10.2925 8.49438C10.4272 8.53929 10.5728 8.53929 10.7075 8.49438L13.6705 7.51001C14.1691 8.18594 14.4379 9.00388 14.4375 9.8438Z" fill="black"/>
</svg>
