<svg width="40" height="40" viewBox="0 0 40 40" fill="none" xmlns="http://www.w3.org/2000/svg">
<rect width="40" height="40" rx="20" fill="#B4E4C9"/>
<path d="M29.2372 13.2885L20.2372 10.2885C20.0832 10.2372 19.9168 10.2372 19.7628 10.2885L10.7628 13.2885C10.6135 13.3383 10.4836 13.4338 10.3915 13.5615C10.2995 13.6892 10.25 13.8426 10.25 14.0001V21.5001C10.25 21.699 10.329 21.8897 10.4697 22.0304C10.6103 22.171 10.8011 22.2501 11 22.2501C11.1989 22.2501 11.3897 22.171 11.5303 22.0304C11.671 21.8897 11.75 21.699 11.75 21.5001V15.0407L14.8991 16.0897C14.0624 17.4414 13.7963 19.0699 14.1593 20.6176C14.5223 22.1653 15.4846 23.5057 16.835 24.3444C15.1475 25.0063 13.6888 26.2035 12.6219 27.8404C12.5664 27.9228 12.5278 28.0155 12.5085 28.113C12.4891 28.2105 12.4894 28.3109 12.5091 28.4083C12.5289 28.5057 12.5678 28.5982 12.6237 28.6804C12.6795 28.7626 12.7512 28.8329 12.8344 28.8872C12.9177 28.9415 13.0109 28.9787 13.1086 28.9967C13.2064 29.0147 13.3067 29.013 13.4039 28.9918C13.501 28.9707 13.5929 28.9304 13.6743 28.8734C13.7557 28.8164 13.825 28.7438 13.8781 28.6597C15.2909 26.4922 17.5222 25.2501 20 25.2501C22.4778 25.2501 24.7091 26.4922 26.1219 28.6597C26.2319 28.8232 26.4018 28.9369 26.5949 28.9761C26.788 29.0153 26.9888 28.9769 27.1539 28.8693C27.3189 28.7616 27.435 28.5933 27.4769 28.4008C27.5189 28.2083 27.4834 28.0069 27.3781 27.8404C26.3112 26.2035 24.8469 25.0063 23.165 24.3444C24.5141 23.5057 25.4755 22.1662 25.8384 20.6196C26.2013 19.0731 25.9361 17.4457 25.1009 16.0944L29.2372 14.7163C29.3866 14.6666 29.5165 14.5711 29.6086 14.4433C29.7006 14.3156 29.7502 14.1622 29.7502 14.0047C29.7502 13.8473 29.7006 13.6939 29.6086 13.5661C29.5165 13.4384 29.3866 13.3429 29.2372 13.2932V13.2885ZM24.5 19.2501C24.5002 19.9615 24.3317 20.6628 24.0084 21.2965C23.6851 21.9302 23.2161 22.4782 22.6399 22.8956C22.0638 23.313 21.3969 23.5878 20.694 23.6975C19.9911 23.8072 19.2722 23.7487 18.5962 23.5268C17.9203 23.3049 17.3066 22.9258 16.8056 22.4208C16.3045 21.9158 15.9303 21.2991 15.7137 20.6215C15.4971 19.9438 15.4442 19.2245 15.5594 18.5225C15.6747 17.8204 15.9547 17.1557 16.3766 16.5829L19.7628 17.7079C19.9168 17.7592 20.0832 17.7592 20.2372 17.7079L23.6234 16.5829C24.1932 17.3554 24.5005 18.2901 24.5 19.2501ZM20 16.2097L13.3719 14.0001L20 11.7904L26.6281 14.0001L20 16.2097Z" fill="black"/>
</svg>
