<svg width="24" height="24" viewBox="0 0 24 24" fill="none" xmlns="http://www.w3.org/2000/svg">
<path d="M21.8956 7.63178C21.6902 7.39897 21.4376 7.21254 21.1545 7.08486C20.8715 6.95719 20.5646 6.89119 20.2541 6.89125H15.147V5.43209C15.147 4.4646 14.7627 3.53674 14.0786 2.85263C13.3944 2.16851 12.4666 1.78418 11.4991 1.78418C11.3636 1.78408 11.2307 1.82175 11.1153 1.89294C11 1.96414 10.9068 2.06606 10.8461 2.18727L7.40067 9.08H3.47369C3.0867 9.08 2.71555 9.23373 2.44191 9.50737C2.16826 9.78102 2.01453 10.1522 2.01453 10.5392V18.5646C2.01453 18.9516 2.16826 19.3227 2.44191 19.5963C2.71555 19.87 3.0867 20.0237 3.47369 20.0237H19.1597C19.6929 20.0239 20.2079 19.8294 20.6079 19.4768C21.0079 19.1241 21.2654 18.6376 21.332 18.1086L22.4264 9.35359C22.4652 9.04536 22.4379 8.73241 22.3464 8.43553C22.2549 8.13866 22.1012 7.86467 21.8956 7.63178ZM3.47369 10.5392H7.1216V18.5646H3.47369V10.5392ZM20.9782 9.17119L19.8838 17.9262C19.8616 18.1025 19.7758 18.2647 19.6424 18.3822C19.5091 18.4998 19.3375 18.5646 19.1597 18.5646H8.58077V9.98194L11.9286 3.28529C12.4248 3.3846 12.8713 3.65278 13.192 4.04419C13.5128 4.4356 13.688 4.92605 13.6878 5.43209V7.62083C13.6878 7.81433 13.7647 7.9999 13.9015 8.13672C14.0384 8.27355 14.2239 8.35041 14.4174 8.35041H20.2541C20.3576 8.35038 20.46 8.37238 20.5543 8.41495C20.6487 8.45752 20.7329 8.51969 20.8014 8.59733C20.8699 8.67496 20.9211 8.76629 20.9516 8.86523C20.9821 8.96418 20.9911 9.06847 20.9782 9.17119Z" fill="#333333"/>
</svg>
