<svg width="24" height="24" viewBox="0 0 24 24" fill="none" xmlns="http://www.w3.org/2000/svg">
<path d="M22.5243 14.6428L21.4299 5.88781C21.3633 5.35875 21.1058 4.87223 20.7058 4.51959C20.3058 4.16696 19.7908 3.97247 19.2576 3.97266H3.57159C3.1846 3.97266 2.81345 4.12639 2.53981 4.40004C2.26616 4.67368 2.11243 5.04483 2.11243 5.43182V13.4572C2.11243 13.8442 2.26616 14.2154 2.53981 14.489C2.81345 14.7626 3.1846 14.9164 3.57159 14.9164H7.49857L10.944 21.8091C11.0047 21.9303 11.0979 22.0322 11.2132 22.1034C11.3286 22.1746 11.4615 22.2123 11.597 22.2122C12.5645 22.2122 13.4923 21.8279 14.1765 21.1437C14.8606 20.4596 15.2449 19.5318 15.2449 18.5643V17.1051H20.352C20.6626 17.1052 20.9696 17.0392 21.2527 16.9115C21.5359 16.7838 21.7886 16.5973 21.994 16.3644C22.1995 16.1315 22.3531 15.8575 22.4445 15.5607C22.5359 15.2638 22.5631 14.9509 22.5243 14.6428ZM7.2195 13.4572H3.57159V5.43182H7.2195V13.4572ZM20.8992 15.3988C20.8312 15.477 20.7471 15.5396 20.6526 15.5823C20.5582 15.6249 20.4556 15.6467 20.352 15.646H14.5153C14.3218 15.646 14.1363 15.7228 13.9994 15.8597C13.8626 15.9965 13.7857 16.182 13.7857 16.3755V18.5643C13.7859 19.0703 13.6107 19.5608 13.2899 19.9522C12.9692 20.3436 12.5227 20.6118 12.0265 20.7111L8.67866 14.0144V5.43182H19.2576C19.4354 5.43176 19.607 5.49659 19.7403 5.61413C19.8737 5.73168 19.9595 5.89385 19.9817 6.0702L21.0761 14.8252C21.0898 14.9279 21.081 15.0324 21.0505 15.1314C21.0199 15.2304 20.9683 15.3216 20.8992 15.3988Z" fill="#333333"/>
</svg>
