<svg width="56" height="56" viewBox="0 0 56 56" fill="none" xmlns="http://www.w3.org/2000/svg">
<rect width="56" height="56" rx="20" fill="#F3F1EE"/>
<path d="M28.8125 23.125V27.54L32.4809 29.7408C32.6657 29.8518 32.7988 30.0316 32.851 30.2408C32.9032 30.4499 32.8702 30.6712 32.7592 30.856C32.6482 31.0407 32.4684 31.1739 32.2593 31.2261C32.0501 31.2783 31.8288 31.2452 31.6441 31.1342L27.5816 28.6967C27.4613 28.6245 27.3618 28.5224 27.2928 28.4003C27.2237 28.2782 27.1875 28.1403 27.1875 28V23.125C27.1875 22.9095 27.2731 22.7029 27.4255 22.5505C27.5778 22.3981 27.7845 22.3125 28 22.3125C28.2155 22.3125 28.4222 22.3981 28.5745 22.5505C28.7269 22.7029 28.8125 22.9095 28.8125 23.125ZM28 18.25C26.7183 18.2468 25.4486 18.4979 24.2646 18.9886C23.0805 19.4794 22.0056 20.2001 21.1019 21.109C20.3635 21.8565 19.7074 22.5756 19.0625 23.3282V21.5C19.0625 21.2845 18.9769 21.0779 18.8245 20.9255C18.6722 20.7731 18.4655 20.6875 18.25 20.6875C18.0345 20.6875 17.8278 20.7731 17.6755 20.9255C17.5231 21.0779 17.4375 21.2845 17.4375 21.5V25.5625C17.4375 25.778 17.5231 25.9847 17.6755 26.1371C17.8278 26.2894 18.0345 26.375 18.25 26.375H22.3125C22.528 26.375 22.7347 26.2894 22.887 26.1371C23.0394 25.9847 23.125 25.778 23.125 25.5625C23.125 25.347 23.0394 25.1404 22.887 24.988C22.7347 24.8356 22.528 24.75 22.3125 24.75H19.9766C20.7027 23.8949 21.4259 23.0895 22.2505 22.2546C23.3798 21.1254 24.8167 20.354 26.3819 20.0368C27.947 19.7196 29.5709 19.8706 31.0507 20.4711C32.5305 21.0715 33.8005 22.0947 34.7021 23.4129C35.6037 24.731 36.0968 26.2856 36.1199 27.8824C36.143 29.4792 35.6951 31.0474 34.832 32.391C33.9689 33.7347 32.729 34.7942 31.2672 35.4372C29.8054 36.0802 28.1866 36.2782 26.6129 36.0063C25.0392 35.7345 23.5806 35.005 22.4191 33.9089C22.3415 33.8356 22.2502 33.7782 22.1504 33.7402C22.0506 33.7021 21.9443 33.6841 21.8376 33.6871C21.7308 33.6901 21.6257 33.7141 21.5282 33.7578C21.4307 33.8014 21.3428 33.8638 21.2695 33.9414C21.1961 34.0191 21.1387 34.1104 21.1007 34.2102C21.0626 34.3099 21.0446 34.4163 21.0476 34.523C21.0506 34.6298 21.0746 34.7349 21.1183 34.8324C21.1619 34.9298 21.2243 35.0178 21.302 35.0911C22.4592 36.1832 23.8662 36.9754 25.4 37.3987C26.9339 37.822 28.548 37.8634 30.1015 37.5194C31.6551 37.1754 33.1008 36.4564 34.3126 35.4252C35.5244 34.394 36.4654 33.0818 37.0534 31.6033C37.6414 30.1247 37.8587 28.5248 37.6862 26.943C37.5137 25.3611 36.9566 23.8456 36.0637 22.5286C35.1708 21.2116 33.9691 20.1331 32.5635 19.3873C31.1579 18.6415 29.5912 18.2511 28 18.25Z" fill="#2C2C2C"/>
</svg>
