<svg width="13" height="15" viewBox="0 0 13 15" fill="none" xmlns="http://www.w3.org/2000/svg">
<path d="M12.972 3.0593L10.1595 0.246797C10.081 0.168468 9.98796 0.106356 9.88553 0.0640101C9.7831 0.0216639 9.67334 -8.68943e-05 9.5625 2.60887e-07H3.9375C3.56454 2.60887e-07 3.20685 0.148158 2.94313 0.411881C2.67941 0.675604 2.53125 1.03329 2.53125 1.40625V2.8125H1.40625C1.03329 2.8125 0.675604 2.96066 0.411881 3.22438C0.148158 3.4881 0 3.84579 0 4.21875V14.0625C0 14.4355 0.148158 14.7931 0.411881 15.0569C0.675604 15.3206 1.03329 15.4688 1.40625 15.4688H9C9.37296 15.4688 9.73065 15.3206 9.99437 15.0569C10.2581 14.7931 10.4062 14.4355 10.4062 14.0625V12.6562H11.8125C12.1855 12.6562 12.5431 12.5081 12.8069 12.2444C13.0706 11.9806 13.2188 11.623 13.2188 11.25V3.65625C13.2188 3.54541 13.1971 3.43565 13.1547 3.33322C13.1124 3.23079 13.0503 3.13771 12.972 3.0593ZM8.71875 13.7812H1.6875V4.5H6.39844L8.71875 6.82031V13.7812ZM11.5312 10.9688H10.4062V6.46875C10.4063 6.35791 10.3846 6.24815 10.3422 6.14572C10.2999 6.04329 10.2378 5.95021 10.1595 5.8718L7.34695 3.0593C7.26854 2.98097 7.17546 2.91886 7.07303 2.87651C6.9706 2.83416 6.86084 2.81241 6.75 2.8125H4.21875V1.6875H9.21094L11.5312 4.00781V10.9688ZM7.59375 9C7.59375 9.22378 7.50485 9.43839 7.34662 9.59662C7.18839 9.75486 6.97378 9.84375 6.75 9.84375H3.65625C3.43247 9.84375 3.21786 9.75486 3.05963 9.59662C2.90139 9.43839 2.8125 9.22378 2.8125 9C2.8125 8.77622 2.90139 8.56161 3.05963 8.40338C3.21786 8.24514 3.43247 8.15625 3.65625 8.15625H6.75C6.97378 8.15625 7.18839 8.24514 7.34662 8.40338C7.50485 8.56161 7.59375 8.77622 7.59375 9ZM7.59375 11.8125C7.59375 12.0363 7.50485 12.2509 7.34662 12.4091C7.18839 12.5674 6.97378 12.6562 6.75 12.6562H3.65625C3.43247 12.6562 3.21786 12.5674 3.05963 12.4091C2.90139 12.2509 2.8125 12.0363 2.8125 11.8125C2.8125 11.5887 2.90139 11.3741 3.05963 11.2159C3.21786 11.0576 3.43247 10.9688 3.65625 10.9688H6.75C6.97378 10.9688 7.18839 11.0576 7.34662 11.2159C7.50485 11.3741 7.59375 11.5887 7.59375 11.8125Z" fill="#4B4943"/>
</svg>
