<svg width="24" height="24" viewBox="0 0 24 24" fill="none" xmlns="http://www.w3.org/2000/svg">
<g filter="url(#filter0_d_1614_619)">
<path d="M12 0C10.4178 0 8.87103 0.469192 7.55544 1.34824C6.23985 2.22729 5.21447 3.47672 4.60897 4.93853C4.00347 6.40034 3.84504 8.00887 4.15372 9.56072C4.4624 11.1126 5.22433 12.538 6.34315 13.6569C7.46197 14.7757 8.88743 15.5376 10.4393 15.8463C11.9911 16.155 13.5997 15.9965 15.0615 15.391C16.5233 14.7855 17.7727 13.7602 18.6518 12.4446C19.5308 11.129 20 9.58225 20 8C19.9978 5.87895 19.1542 3.84542 17.6544 2.34562C16.1546 0.845814 14.121 0.00223986 12 0ZM17.5285 4.09769L12.6154 6.93384V1.25923C13.5909 1.34867 14.5354 1.64878 15.3837 2.13884C16.2319 2.62891 16.9637 3.29724 17.5285 4.09769ZM11.3846 1.25923V7.64384L5.85462 10.8362C5.40065 9.85218 5.18954 8.77361 5.23904 7.6911C5.28854 6.60859 5.59721 5.55378 6.13908 4.61536C6.68096 3.67693 7.44021 2.8823 8.35301 2.29829C9.26581 1.71427 10.3055 1.35794 11.3846 1.25923ZM12 14.7692C10.9163 14.7688 9.84855 14.5082 8.88651 14.0093C7.92447 13.5104 7.09627 12.7878 6.47154 11.9023L18.1454 5.16308C18.6214 6.19442 18.8303 7.32899 18.7527 8.46225C18.6752 9.59551 18.3137 10.691 17.7015 11.6479C17.0894 12.6048 16.2463 13.3922 15.2499 13.9377C14.2535 14.4831 13.1359 14.7691 12 14.7692Z" fill="black"/>
</g>
<defs>
<filter id="filter0_d_1614_619" x="0" y="0" width="24" height="24" filterUnits="userSpaceOnUse" color-interpolation-filters="sRGB">
<feFlood flood-opacity="0" result="BackgroundImageFix"/>
<feColorMatrix in="SourceAlpha" type="matrix" values="0 0 0 0 0 0 0 0 0 0 0 0 0 0 0 0 0 0 127 0" result="hardAlpha"/>
<feOffset dy="4"/>
<feGaussianBlur stdDeviation="2"/>
<feComposite in2="hardAlpha" operator="out"/>
<feColorMatrix type="matrix" values="0 0 0 0 0 0 0 0 0 0 0 0 0 0 0 0 0 0 0.25 0"/>
<feBlend mode="normal" in2="BackgroundImageFix" result="effect1_dropShadow_1614_619"/>
<feBlend mode="normal" in="SourceGraphic" in2="effect1_dropShadow_1614_619" result="shape"/>
</filter>
</defs>
</svg>
