<svg width="16" height="17" viewBox="0 0 16 17" fill="none" xmlns="http://www.w3.org/2000/svg">
<path d="M15.664 7.86345C15.5578 7.95853 15.4317 8.03396 15.2928 8.08543C15.1539 8.1369 15.005 8.1634 14.8547 8.1634C14.7043 8.1634 14.5554 8.1369 14.4165 8.08543C14.2777 8.03396 14.1515 7.95853 14.0454 7.86345L9.14305 3.48767V15.9802C9.14305 16.2507 9.02268 16.5101 8.80842 16.7013C8.59416 16.8926 8.30355 17 8.00054 17C7.69753 17 7.40692 16.8926 7.19266 16.7013C6.9784 16.5101 6.85802 16.2507 6.85802 15.9802V3.48767L1.95378 7.86345C1.73914 8.05503 1.44804 8.16266 1.1445 8.16266C0.840958 8.16266 0.54985 8.05503 0.335216 7.86345C0.120581 7.67187 0 7.41203 0 7.1411C0 6.87016 0.120581 6.61032 0.335216 6.41874L7.19031 0.299945C7.29645 0.204873 7.42257 0.129438 7.56145 0.0779667C7.70032 0.0264954 7.84922 0 7.99959 0C8.14996 0 8.29885 0.0264954 8.43773 0.0779667C8.5766 0.129438 8.70273 0.204873 8.80887 0.299945L15.664 6.41874C15.7705 6.51348 15.855 6.62606 15.9127 6.75002C15.9703 6.87398 16 7.00688 16 7.1411C16 7.27532 15.9703 7.40821 15.9127 7.53217C15.855 7.65613 15.7705 7.76871 15.664 7.86345Z" fill="white"/>
</svg>
